<svg width="60" height="64" viewBox="0 0 60 64" fill="none" xmlns="http://www.w3.org/2000/svg">
<path d="M30.0073 63.463C38.6699 63.463 43.705 61.7052 47.6953 60.4153C53.8186 58.4307 60 53.5828 60 53.5828L52.1645 47.0479L50.3216 47.8843C50.3216 47.8843 43.5018 50.3366 41.1076 50.8611C38.6409 51.3998 33.5478 51.9951 31.0085 52.0518C28.266 52.1227 22.5054 51.499 19.821 50.9603C17.1947 50.4359 9.89601 47.8701 9.89601 47.8701L0.972189 50.5067L0 53.5828C0 53.5828 8.50302 59.3096 13.6832 60.9398C17.6155 62.173 23.318 63.463 30.0073 63.463Z" fill="#D8D8D8"/>
<path d="M0.435308 18.5272L0 30.3919C0 30.3919 12.74 23.1058 16.8755 20.4975C20.2854 18.3571 30.2104 11.5246 30.2104 11.5246C30.2104 11.5246 39.4534 18.0027 42.6312 20.0298C46.8827 22.7514 60 30.3919 60 30.3919V18.6406C60 18.6406 49.0012 12.5877 45.4462 10.3905C41.4849 7.93819 30.0073 0 30.0073 0C30.0073 0 20.4595 6.96009 17.1221 9.05804C13.0738 11.6238 0.435308 18.5272 0.435308 18.5272Z" fill="white"/>
<path d="M0.435308 41.7182L0 53.583C0 53.583 12.74 46.2968 16.8755 43.6886C20.2854 41.5481 30.2104 34.7156 30.2104 34.7156C30.2104 34.7156 39.4534 41.1937 42.6312 43.2208C46.8827 45.9425 60 53.583 60 53.583V41.8316C60 41.8316 49.0012 35.7787 45.4462 33.5816C41.4849 31.1292 30.0073 23.191 30.0073 23.191C30.0073 23.191 20.445 30.137 17.1221 32.2491C13.0738 34.8148 0.435308 41.7182 0.435308 41.7182Z" fill="white"/>
</svg>
