<svg width="62" height="40" viewBox="0 0 62 40" fill="none" xmlns="http://www.w3.org/2000/svg">
<path d="M3.55686 15.7098C2.53337 15.3355 2.58455 15.3355 2.73807 14.2128C2.78925 13.5267 2.8916 12.903 2.8916 12.1546C2.8916 11.5932 3.04512 11.4685 3.45451 11.4685C4.2733 11.4685 4.17096 11.4685 4.11978 10.4705C3.96626 8.97358 4.17096 7.53902 4.93858 6.29158C5.39915 5.60549 5.91088 5.23126 6.62733 5.10651C6.78085 5.10651 6.93438 5.10651 7.0879 5.16888C7.24142 5.16888 7.39494 5.23126 7.54847 5.356C7.54847 5.16888 7.59964 4.9194 7.54847 4.73228C7.0879 2.92349 8.06021 0.989952 9.59544 0.802835C10.1072 0.740463 10.6189 1.17707 11.0795 1.36419C11.9495 1.61367 12.0518 2.61163 12.103 3.48484C12.1542 4.04619 12.1542 4.6699 11.5401 4.91939C11.3865 4.98177 11.3354 5.54312 11.233 5.91735C12.103 6.16684 12.103 5.73023 12.9218 5.356C13.7406 5.54312 13.587 5.7926 14.0988 5.7926H19.5745C19.8815 5.7926 20.0862 5.97972 20.3932 6.04209C20.3932 5.66786 20.8538 5.97972 21.0585 6.66581C21.7238 6.60344 22.389 6.60344 22.952 6.4787C23.259 6.4787 23.6172 6.4787 23.9243 6.54107C23.9755 6.54107 24.0778 6.72819 24.0778 6.72819C24.0778 6.79056 23.9243 6.97767 23.9243 6.97767H22.952C22.2867 6.97767 21.6214 6.9153 21.0585 6.97767C20.035 7.16479 19.0115 7.41428 17.9881 7.41428C16.9646 7.35191 16.2481 8.59935 16.4528 9.72205C16.504 9.97154 16.6063 10.2834 16.6575 10.5329C16.0946 10.72 15.9922 11.219 15.9411 11.7803C15.8899 12.7783 15.2246 13.2773 14.6105 13.6515C14.2523 13.8386 13.7406 13.6515 13.28 13.4644C12.6147 13.2149 12.0518 12.7783 11.3865 12.404C11.233 12.8407 11.0283 13.2773 11.5912 13.5891C11.7448 13.6515 11.7959 13.9634 11.7959 14.1505C11.7448 15.4603 11.6424 16.7701 11.4889 18.0799C11.4377 18.5165 11.1819 18.766 10.7725 18.5165C10.7213 18.5165 10.4142 18.7036 10.4142 18.766C10.4654 19.2026 10.4654 19.764 10.7213 20.0758C11.7448 21.5104 12.41 23.1944 12.9218 24.8785C13.0753 25.3151 13.3824 25.7517 13.4847 26.313C13.8429 27.6228 13.5359 28.9327 13.4847 30.2425C13.4335 30.8038 13.4847 31.3028 13.4847 31.9265C13.4847 32.3007 13.4847 32.6126 13.4335 32.9868C13.3823 33.4234 13.28 33.8601 13.2288 34.2967C13.2288 35.7312 13.7917 36.7915 14.9176 37.3529C15.1223 37.4153 15.2758 37.54 15.4293 37.7271C15.5829 37.9142 15.634 38.1637 15.5828 38.3508C15.5828 38.4132 15.2758 38.6003 15.2246 38.6003L12.5636 38.3508H11.4889C11.0283 38.3508 10.8236 38.1637 10.9771 37.54C11.1307 36.4797 11.5401 35.4194 11.3354 34.2343C11.2842 33.6729 11.1307 33.174 11.0283 32.6126C10.8748 31.6147 10.7213 30.7414 10.7213 29.7435C10.7213 29.1821 10.926 28.7455 11.0283 28.2466C11.1819 27.5605 10.9772 27.3733 10.3631 27.1862C10.1584 27.1862 9.85132 26.9367 9.64662 26.6249C9.18605 25.9388 8.82782 25.1903 8.41843 24.3795C8.36726 24.3171 8.26491 24.0053 8.21374 24.0053C7.65082 24.0676 7.39494 23.4439 7.13907 22.8202C6.6785 24.0053 6.26911 24.9408 5.91089 25.9388C5.85971 26.1883 5.85972 26.5625 5.70619 26.812C5.65502 27.0615 5.50149 27.4357 5.34796 27.6852C4.98974 28.3713 4.63153 28.995 4.27331 29.6187C4.27331 29.6811 4.22213 29.6811 4.22213 29.8059C4.42683 31.3028 3.55686 32.4879 3.19864 33.7353C3.14747 34.1719 2.63573 34.4214 2.4822 34.9204C2.12398 35.9183 1.97046 36.8539 2.32868 37.9766C2.53338 38.6003 2.37985 38.8498 1.81693 38.8498H0.588751C0.128181 38.8498 -0.0765199 38.4756 0.025829 37.9766C0.179352 36.9787 0.38405 36.0431 0.537573 35.0451C0.588748 34.6085 0.537576 34.0472 0.588751 33.5482C0.639925 32.9868 0.742271 32.5502 0.793445 32.0513C0.946968 31.4899 0.99814 30.9909 1.25401 30.4296C1.45871 29.8059 1.71459 29.1821 1.97046 28.5584C2.17516 28.1218 2.43102 27.7476 2.53337 27.311C2.58455 27.1239 2.6869 26.8744 2.6869 26.6249L2.8916 23.132C2.8916 22.8826 2.84042 22.5083 2.84042 22.2588C2.84042 21.6351 2.78924 21.0114 2.78924 20.3877C2.78924 20.2006 2.84042 19.9511 2.94277 19.9511C3.45451 19.764 3.24982 19.3274 3.24982 19.0779C3.19864 18.3918 3.09629 17.768 3.04512 17.0196C2.94277 16.6454 2.89159 16.0216 3.55686 15.7098ZM14.2523 10.0963C14.5594 9.47256 14.9176 9.03596 15.1223 8.47461C15.1735 8.28749 15.1223 7.91326 14.9688 7.85088C14.9176 7.78851 14.6105 7.85088 14.457 7.91326C14.15 8.16274 13.9964 8.53698 13.7406 8.97358C13.8941 9.28544 14.0476 9.65968 14.2523 10.0963Z" fill="url(#paint0_linear_19_9942)"/>
<path d="M59.4781 22.9479C58.6351 22.3277 57.5721 22.0619 56.326 22.0619H45.7333C45.1102 22.0619 44.5604 22.1948 44.0473 22.3277C43.5342 22.5935 43.0943 22.815 42.6912 23.0808C42.288 23.3466 41.9581 23.7009 41.7382 24.2325C41.5183 24.6312 41.4083 25.1184 41.4083 25.65V35.6611C41.4083 36.2812 41.5183 36.8128 41.7382 37.1672C41.9581 37.6544 42.2513 38.0531 42.6912 38.3189C43.0943 38.7175 43.5342 38.939 44.0473 39.0719C44.5604 39.2048 45.1102 39.3377 45.7333 39.3377H56.4359C56.9491 39.3377 57.6088 39.2048 58.1219 39.0719C58.6351 38.939 59.0749 38.6732 59.4781 38.4518C59.8813 38.186 60.2111 37.8316 60.4311 37.4329C60.651 37.0343 60.7609 36.547 60.7609 35.9268V25.65C60.7609 24.4983 60.3211 23.6123 59.4781 22.9479ZM56.0327 35.9268H46.3564V25.7829H56.0327V35.9268Z" fill="white"/>
<path d="M39.7229 25.7386C39.7229 24.454 39.3197 23.568 38.55 22.9479C37.8169 22.3277 36.754 22.0619 35.3979 22.0619H24.8052C24.1821 22.0619 23.6323 22.1948 23.1192 22.3277C22.6061 22.5935 22.1662 22.815 21.7631 23.0808C21.3599 23.4794 21.03 23.8338 20.8101 24.2325C20.5902 24.6312 20.4802 25.1184 20.4802 25.65V35.794C20.4802 36.4141 20.5902 36.9457 20.8101 37.3C21.03 37.7873 21.3232 38.186 21.7631 38.4518C22.1662 38.8504 22.6061 39.0719 23.1192 39.2048C23.6323 39.3377 24.2921 39.4706 24.8052 39.4706H35.3979C36.0209 39.4706 36.5707 39.3377 37.0839 39.2048C37.597 39.0719 38.0368 38.8061 38.44 38.5847C38.8432 38.186 39.1731 37.8316 39.393 37.4329C39.6129 36.9457 39.7229 36.4141 39.7229 35.794V28.928H27.2243V29.5481C27.3343 30.434 27.7375 31.0542 28.5805 31.7186C29.4235 32.3388 30.3764 32.6046 31.5127 32.6046H34.9947V35.8826H25.3184V25.7386H39.7229Z" fill="white"/>
<path d="M61.2652 14.8898V11.346C61.2652 10.8588 61.1553 10.3272 60.862 9.83995C60.5322 9.35269 60.239 8.95402 59.7991 8.68824C59.3959 8.42246 58.8462 8.20097 58.333 8.06808C57.8199 8.06808 57.1601 7.93519 56.647 7.93519H46.7874V4.74582H61.1919C61.1919 3.46121 60.7887 2.44239 59.9457 1.95512C59.2127 1.33497 58.0398 1.06919 56.6836 1.06919H46.2743C45.6512 1.06919 45.1014 1.20208 44.5883 1.33497C44.0751 1.60075 43.6353 1.73364 43.2321 2.08801C42.8289 2.48669 42.4991 2.84106 42.2792 3.37262C42.0592 3.85989 41.9493 4.52434 41.9493 5.14449V8.06808C41.9493 8.68824 42.0592 9.2198 42.2792 9.70706C42.4991 10.1943 42.7923 10.593 43.2321 10.8588C43.6353 11.1246 44.0751 11.346 44.5883 11.4789C45.1014 11.6118 45.7612 11.7447 46.2743 11.7447H56.4637V15.067H41.876C41.876 15.5542 42.0959 16.2187 42.2792 16.5731C42.609 17.0603 42.9023 17.459 43.3421 17.7248C43.7453 17.9906 44.2951 18.212 44.8082 18.3449C45.3213 18.4778 45.9811 18.6107 46.4942 18.6107H56.6836C58.0398 18.6107 59.2127 18.3449 60.0557 17.7248C60.8254 17.0603 61.2652 16.1744 61.2652 14.8898Z" fill="white"/>
<path d="M38.9807 2.04488C38.1377 1.42472 37.0748 1.15894 35.7187 1.15894H25.126C24.5029 1.15894 23.9532 1.29183 23.44 1.42472C22.9269 1.6905 22.487 1.91198 22.0839 2.17776C21.6807 2.44354 21.3508 2.79792 21.1309 3.32948C20.911 3.72815 20.801 4.21542 20.801 4.74698V14.8909C20.801 15.5111 20.911 16.0427 21.1309 16.397C21.3508 16.8843 21.644 17.283 22.0839 17.5488C22.487 17.9474 22.9269 18.1689 23.44 18.3018C23.9532 18.4347 24.6129 18.5676 25.126 18.5676H35.7187C36.3418 18.5676 36.8915 18.4347 37.4047 18.3018C37.9178 18.1689 38.3577 17.9031 38.7608 17.6816C39.164 17.4159 39.4939 17.0615 39.7138 16.5299C39.9337 16.0427 40.0437 15.5111 40.0437 14.8909V11.4801H35.3155V15.0238H25.6392V4.87987H35.3155V8.20213H35.6454C36.2685 8.20213 36.8182 8.06924 37.3314 7.93635C37.8445 7.67057 38.2843 7.53768 38.6875 7.1833C39.0174 7.05041 39.3106 6.78463 39.6405 6.43026C39.9704 6.03159 40.1536 5.54432 40.1536 4.92417C40.1536 3.59526 39.7138 2.70933 38.9807 2.04488Z" fill="white"/>
<defs>
<linearGradient id="paint0_linear_19_9942" x1="-0.274462" y1="19.9756" x2="23.9879" y2="19.9756" gradientUnits="userSpaceOnUse">
<stop stop-color="#0BB6E9"/>
<stop offset="0.519" stop-color="#0BB4E7"/>
<stop offset="0.706" stop-color="#09AEE0"/>
<stop offset="0.8392" stop-color="#06A3D5"/>
<stop offset="0.9462" stop-color="#0394C4"/>
<stop offset="1" stop-color="#0089B8"/>
</linearGradient>
</defs>
</svg>
