<svg width="60" height="56" viewBox="0 0 60 56" fill="none" xmlns="http://www.w3.org/2000/svg">
<path d="M8.29352 0.953773C8.65188 0.953773 9.06143 1.00146 9.4198 0.953773C13.1058 0.238443 16.5358 2.0983 20.2218 1.95524C21.0922 1.90755 21.8089 1.81217 22.5256 1.38297C26.058 -0.810707 30.1024 0.476887 33.8396 0C33.8396 1.33528 35.273 0.858396 35.8874 1.43066C37.3208 2.71825 38.4983 2.43212 39.2662 0.763019C39.5734 0.0476887 40.1365 0.190755 40.6485 0.190755C43.7713 0.333821 46.9966 0.0953773 49.9659 0.763019C52.3208 1.28759 54.5222 0.71533 56.7747 1.09684C58.9249 1.47835 59.744 2.05061 59.7952 4.00585C59.8464 8.53627 59.8464 13.0667 59.8464 17.5971C59.8464 18.4078 59.7952 19.1232 58.8225 19.457C57.901 19.7908 58.7201 20.8876 57.7986 21.4599C56.6724 22.2229 57.901 22.8906 58.3618 23.4628C59.2321 24.6073 59.1297 25.9426 59.0785 27.2302C58.9761 28.5655 58.3618 30.6161 58.8225 31.1407C60.512 32.9529 59.5904 34.9081 59.6928 36.7203C59.9488 42.2998 59.8976 47.8317 60 53.4113C60 54.4604 59.7952 54.842 58.6689 54.3174C57.901 53.9836 56.9795 53.6021 56.1604 53.5544C55.4437 53.5067 54.5222 52.7913 53.959 54.3174C53.6007 55.2235 51.4505 55.1281 50.0683 54.9373C49.1468 54.7943 48.2765 54.6512 47.3038 54.6035C43.0034 54.3651 38.8055 55.0804 34.5051 54.8896C34.2491 54.8896 33.8908 54.8896 33.7884 55.0327C32.2526 56.7972 30.6143 55.7004 29.0273 55.2235C28.3106 55.0327 27.5427 54.5558 26.9283 55.2712C25.9044 56.4634 25.2389 55.7004 24.7782 54.8896C24.3686 54.1743 24.0614 54.1266 23.2423 54.1743C21.9625 54.2697 20.5802 54.4128 19.3515 53.6974C18.43 53.1729 17.6621 54.1266 16.843 54.0313C12.3891 53.5067 7.93515 53.9359 3.48123 53.8405C0.870307 53.7928 0.716724 53.459 0.767918 51.0746C0.819113 48.7855 0.614335 46.4488 0.511945 44.1597C0.460751 43.2536 0.56314 42.4906 1.27986 41.7276C2.30375 40.6307 1.94539 37.0064 1.02389 35.5757C-0.153584 33.7159 0.0511945 31.5699 0 29.5193C0 29.0901 0.56314 29.1378 0.870307 28.947C2.45734 28.1363 2.76451 27.0872 1.74061 25.7996C0.870307 24.7027 0.511945 23.6536 1.07509 22.366C1.48464 21.4599 1.33106 20.5061 0.972696 19.6C-0.153584 16.8341 0 14.0682 0.614335 11.2068C1.12628 8.87009 1.12628 6.48566 0.56314 4.14891C0 1.81217 0.614334 1.00146 3.17406 1.00146C4.86348 1.00146 6.6041 1.00146 8.29352 0.953773C8.29352 1.00146 8.29352 0.953773 8.29352 0.953773ZM7.11604 11.0638C7.26962 11.2545 7.37201 11.493 7.57679 11.636C18.7884 22.6521 30 33.6682 41.2116 44.6843C41.6212 45.0658 41.9795 45.4473 42.6451 45.495C44.4369 45.5904 46.2287 45.6857 47.9693 45.7811C49.1468 45.8765 49.8635 45.3996 50.2218 44.3028C50.785 42.4906 51.4505 40.6784 52.0648 38.9139C53.1399 35.6711 53.1399 35.6711 50.1707 33.8113C38.1911 26.3241 26.1092 18.9324 14.2833 11.2545C11.6724 9.58542 9.62457 9.63311 7.11604 11.0638ZM11.6724 33.239C10.2389 36.1957 9.11263 38.5801 7.98635 40.9169C7.67918 41.5368 7.37201 42.1091 7.73038 42.7767C8.95905 45.0658 13.4642 47.1164 16.1775 46.4488C18.4812 45.8765 20.6826 44.9704 22.4232 44.3505C18.942 40.7261 15.4096 37.1018 11.6724 33.239ZM35.529 11.9699C39.2662 14.6404 42.5427 16.9772 45.8191 19.3139C46.843 20.0769 47.2526 19.6954 47.4061 18.6463C47.6621 17.1202 47.9693 15.6419 48.2765 14.1158C48.6348 12.4467 46.4334 9.72849 44.5904 10.0146C41.7236 10.4438 38.9079 11.2068 35.529 11.9699Z" fill="#F14B4B"/>
</svg>
