<svg width="60" height="22" viewBox="0 0 60 22" fill="none" xmlns="http://www.w3.org/2000/svg">
<path d="M60 21.0568C58.1365 21.0568 56.2984 21.0568 54.4729 21.0568C54.194 21.0568 54.1814 20.9174 54.156 20.7145C54.0419 19.7765 53.9025 18.8384 53.8011 17.9003C53.763 17.5327 53.6743 17.3552 53.2306 17.3679C51.1009 17.3932 48.9712 17.3932 46.8415 17.3679C46.4866 17.3679 46.3345 17.4946 46.1823 17.7989C45.7387 18.775 45.2569 19.7257 44.8006 20.6892C44.6992 20.9047 44.5978 21.0568 44.3062 21.0568C42.5822 21.0441 40.8455 21.0441 39.1341 21.0441C39.0327 20.8033 39.2102 20.6638 39.2862 20.499C42.7596 13.8564 46.2584 7.21383 49.7318 0.545882C49.9473 0.12755 50.1882 -0.0118934 50.6572 0.000783355C52.4446 0.0261368 54.2447 0.0261368 56.0322 0.000783355C56.4505 0.000783355 56.6153 0.114874 56.6787 0.533205C57.2745 4.31087 57.883 8.08853 58.4914 11.8535C58.9858 14.9086 59.4929 17.951 60 21.0568ZM52.1784 5.46445C52.1404 5.45177 52.0897 5.43909 52.0517 5.42642C50.8854 7.92373 49.7192 10.4084 48.5149 12.9817C49.9473 12.9817 51.2784 12.9564 52.5968 12.9944C53.1038 13.0071 53.2052 12.8676 53.0785 12.3986C52.9644 11.9803 52.9644 11.5239 52.9137 11.0929C52.6601 9.20408 52.4193 7.3406 52.1784 5.46445Z" fill="white"/>
<path d="M16.0245 8.54478C15.7837 9.91387 15.5174 11.2576 15.3273 12.6013C15.2639 13.0197 15.1118 13.0957 14.7315 13.0957C12.4117 13.083 10.0918 13.1084 7.77197 13.0704C7.31561 13.0704 7.16349 13.2098 7.10011 13.6408C6.73248 15.8973 6.31415 18.1537 5.94653 20.4102C5.87047 20.8919 5.7437 21.082 5.21128 21.0694C3.61401 21.0313 2.00407 21.044 0.406806 21.0694C0.0265046 21.0694 -0.0495556 20.9806 0.0265047 20.6003C1.19276 13.9958 2.3717 7.37852 3.52528 0.748604C3.62669 0.190829 3.80416 0.0260315 4.38729 0.0260315C9.17909 0.0513849 13.9709 0.0513849 18.75 0.0260315C19.3585 0.0260315 19.4345 0.203505 19.3331 0.723251C19.105 1.85148 18.8894 2.99238 18.7373 4.13329C18.6739 4.55162 18.5345 4.64035 18.1415 4.64035C15.1879 4.62768 12.2342 4.64035 9.2805 4.615C8.82414 4.615 8.65934 4.75444 8.59596 5.17278C8.46919 6.0855 8.31707 6.99822 8.12692 7.89827C8.02551 8.35463 8.08889 8.51943 8.60864 8.50675C10.9285 8.4814 13.2483 8.49408 15.5682 8.49408C15.7203 8.50675 15.8597 8.53211 16.0245 8.54478Z" fill="white"/>
<path d="M37.2327 0.0515189C39.6793 0.0515189 42.1259 0.0641957 44.5725 0.0388422C45.0289 0.0388422 45.143 0.152933 45.0542 0.596618C44.826 1.81358 44.5979 3.03055 44.4204 4.26019C44.357 4.72923 44.0654 4.64049 43.7865 4.64049C40.8709 4.64049 37.9679 4.65317 35.0523 4.62781C34.5579 4.62781 34.3551 4.7419 34.2917 5.24897C34.1776 6.14902 34.0128 7.03639 33.8226 7.92376C33.7339 8.36744 33.7846 8.54492 34.317 8.53224C36.5988 8.50689 38.8807 8.53224 41.1498 8.50689C41.6695 8.49421 41.7329 8.63365 41.6442 9.10269C41.416 10.2563 41.2005 11.4099 41.0357 12.5761C40.9723 13.0071 40.8202 13.1212 40.4019 13.1085C38.1074 13.0832 35.8002 13.1212 33.5057 13.0832C33.024 13.0705 32.8592 13.2353 32.7832 13.679C32.4029 15.9608 31.9972 18.2299 31.6169 20.5117C31.5535 20.892 31.4521 21.0822 30.9957 21.0695C29.3731 21.0315 27.7505 21.0442 26.1152 21.0695C25.6969 21.0695 25.6335 20.9554 25.7096 20.5624C26.8885 13.9452 28.0674 7.32795 29.2337 0.698031C29.3224 0.152933 29.5379 0.0134888 30.0703 0.0261655C32.4662 0.0641956 34.8495 0.0515189 37.2327 0.0515189Z" fill="white"/>
<path d="M27.3322 0.051385C26.673 3.77834 26.0265 7.44191 25.38 11.0928C24.8222 14.262 24.2391 17.4185 23.694 20.5877C23.6306 20.9553 23.5292 21.082 23.1489 21.0694C21.5262 21.044 19.9036 21.044 18.281 21.0694C17.7866 21.082 17.7866 20.8792 17.85 20.5116C19.0416 13.8563 20.2205 7.18837 21.3995 0.5331C21.4629 0.165475 21.5896 0.0260315 22.008 0.0260315C23.7573 0.0640616 25.5321 0.051385 27.3322 0.051385Z" fill="white"/>
</svg>
