<svg width="60" height="29" viewBox="0 0 60 29" fill="none" xmlns="http://www.w3.org/2000/svg">
<path d="M26.5234 28.0978C25.2075 28.0978 23.9012 28.0882 22.5853 28.1075C22.3355 28.1075 22.1146 28.069 21.9417 27.8865C21.0773 26.9644 19.9919 26.6475 18.7432 26.5322C16.8221 26.3497 14.9107 26.0327 13.0185 25.6101C12.202 25.4276 12.1636 25.3988 12.154 24.5823C12.154 23.958 12.1732 23.3337 12.1444 22.7189C12.1348 22.3923 12.1924 22.2771 12.5574 22.3347C13.8925 22.5652 15.2373 22.8054 16.582 22.9783C20.3088 23.4585 24.0645 23.9676 27.8201 23.5738C32.1905 23.1127 36.5129 22.3059 40.4798 20.2504C41.8438 19.5396 43.1309 18.7135 44.1971 17.5801C46.0413 15.5918 46.1565 13.1521 44.4564 11.039C43.0156 9.25238 41.1042 8.10936 39.0294 7.22568C36.5225 6.14989 33.881 5.65042 31.2012 5.30463C27.9162 4.882 24.6312 4.84358 21.3366 5.02608C17.1871 5.26621 13.1049 5.89055 9.24361 7.51384C7.41862 8.25344 5.67047 9.14673 4.24889 10.5587C3.76863 11.039 3.36521 11.5672 2.9714 12.1147C2.77929 12.3741 2.6064 12.4221 2.34706 12.2108C1.62667 11.6345 0.896669 11.0582 0.157066 10.5011C-0.13109 10.2801 0.0418037 10.1265 0.166672 9.95357C1.54022 7.97489 3.31719 6.49568 5.43994 5.38148C7.39941 4.33451 9.44532 3.48924 11.5969 2.91293C12.1348 2.76885 12.5766 2.52872 12.884 2.08688C13.4219 1.31846 14.1903 1.0207 15.1028 0.867017C20.1936 0.00254573 25.3132 -0.160743 30.452 0.137019C36.2535 0.463597 41.8053 1.83715 46.9922 4.5074C48.894 5.48713 50.6133 6.7166 52.0829 8.29186C53.0627 9.34844 53.7927 10.5683 54.3786 11.8554C54.7724 12.7007 55.3391 13.0465 56.242 13.0368C57.3658 13.0176 58.48 13.0657 59.6038 13.0561C59.9208 13.0561 60.0169 13.1425 59.9977 13.4595C59.9688 14.1126 59.9688 14.7658 59.9977 15.4189C60.0169 15.7839 59.8728 15.832 59.5558 15.832C58.336 15.8224 57.1257 15.88 55.9058 15.832C55.1758 15.8032 54.734 16.1393 54.3882 16.6964C54.1097 17.1383 53.8599 17.6089 53.5621 18.0412C51.6891 20.7883 49.163 22.7573 46.2334 24.275C43.2653 25.8118 40.0764 26.6379 36.8202 27.2334C35.1201 27.5503 33.4008 27.7328 31.691 27.8865C29.9717 28.0498 28.2428 28.0402 26.5234 28.0978Z" fill="white"/>
<path d="M24.7754 17.4553C23.5747 17.5418 22.4221 17.3112 21.3367 16.7926C21.0197 16.6389 20.722 16.4564 20.453 16.2259C19.2716 15.2269 19.31 13.8918 20.5395 12.9505C21.3751 12.3165 22.3453 11.9611 23.3634 11.8459C24.7562 11.6922 26.1681 11.673 27.5321 12.1821C28.1084 12.3934 28.6463 12.6623 29.1073 13.0657C30.2215 14.0359 30.2215 15.2653 29.0881 16.2066C28.1372 16.9943 26.9942 17.3305 25.7839 17.4457C25.4477 17.4841 25.1116 17.4553 24.7754 17.4553Z" fill="white"/>
</svg>
