<svg width="33" height="29" viewBox="0 0 33 29" fill="none" xmlns="http://www.w3.org/2000/svg">
<path d="M31.6716 15.6808C30.5614 16.3566 29.4926 17.0048 28.4306 17.653C27.6928 18.1012 26.955 18.5357 26.224 18.9908C26.1068 19.0666 25.9827 19.177 25.9206 19.3011C25.5275 20.0527 25.1621 20.8181 24.7759 21.5698C24.6449 21.8249 24.5484 22.0594 24.7207 22.3352C24.7552 22.3973 24.7414 22.4869 24.7483 22.6179C24.2863 22.5214 23.8657 22.5352 23.5002 22.9075C23.4519 22.7558 23.4244 22.6662 23.3899 22.5628C22.8727 22.5283 22.3486 22.4938 21.8246 22.4524C21.8246 22.4179 21.8177 22.3835 21.8246 22.3766C22.8037 21.7698 23.2244 20.7699 23.645 19.7769C24.1001 18.6943 24.4725 17.5772 24.4449 16.3911C24.3622 13.2604 22.3969 9.25404 17.9285 8.26106C14.4048 7.47495 10.7776 9.27473 9.15024 12.3157C8.26069 13.9776 8.10899 15.7498 8.49515 17.591C8.81924 19.1425 9.58467 20.4734 10.4466 21.7698C10.5983 21.9973 10.7983 22.1835 10.9707 22.3904C10.75 22.4248 10.4949 22.5765 10.2329 22.3352C10.1846 22.2938 10.0812 22.2938 10.0053 22.3076C9.6881 22.3697 9.3778 22.4317 9.06749 22.5145C8.95026 22.549 8.84683 22.6455 8.71581 22.7283C8.63306 22.6524 8.52962 22.4731 8.38481 22.4317C8.22621 22.3904 8.03313 22.48 7.85385 22.5076C7.56423 22.549 7.27461 22.5903 6.90913 22.6455C7.07463 22.3214 7.18496 22.0594 7.32977 21.818C7.4401 21.6387 7.45389 21.5008 7.35046 21.3146C6.99188 20.6802 6.6471 20.0251 6.28852 19.3838C6.24025 19.3011 6.1644 19.2183 6.08165 19.1701C4.28876 18.1219 2.48209 17.0738 0.682307 16.0256C0.56508 15.9567 0.461645 15.8808 0.32373 15.7912C0.392688 15.7153 0.427166 15.6533 0.482332 15.6188C2.23384 14.6189 3.98535 13.619 5.74376 12.626C5.95753 12.5019 6.21267 12.4536 6.44022 12.3502C6.53676 12.3088 6.6333 12.2192 6.68157 12.1296C7.06773 11.4676 7.447 10.7987 7.80557 10.1229C7.86074 10.0195 7.84695 9.85397 7.81247 9.72985C7.47458 8.59895 7.1229 7.47495 6.77811 6.35095C6.74364 6.23372 6.71605 6.11649 6.66089 5.90962C7.01257 6.01995 7.2884 6.1027 7.56423 6.19235C8.43308 6.48197 9.30194 6.78538 10.1777 7.04741C10.3639 7.10258 10.5914 7.04741 10.7914 7.00604C10.9293 6.97846 11.0535 6.85433 11.1914 6.80606C12.0809 6.50265 12.5912 5.84756 13.0256 5.03387C13.9359 3.34442 14.9288 1.69634 15.9011 0C16.9976 1.94459 18.0733 3.8616 19.1628 5.77171C19.2593 5.93721 19.4248 6.08201 19.5972 6.17166C20.0799 6.4268 20.5833 6.66125 21.0867 6.88192C21.2384 6.95087 21.4453 6.98535 21.6039 6.94398C22.8658 6.60609 24.1139 6.24062 25.3758 5.88894C25.4034 5.88204 25.4379 5.89583 25.5207 5.90273C25.4379 6.22682 25.3552 6.54403 25.2724 6.86123C25.0104 7.84732 24.7483 8.82651 24.4932 9.81259C24.4656 9.92982 24.4932 10.0884 24.5484 10.1988C24.8518 10.7918 25.1621 11.3779 25.4931 11.9572C25.5689 12.0882 25.693 12.2054 25.8241 12.2813C27.7273 13.3708 29.6305 14.4465 31.5337 15.5291C31.5544 15.5705 31.5958 15.6119 31.6716 15.6808ZM1.48911 15.8119C1.57185 15.8463 1.59944 15.867 1.62702 15.867C3.02685 15.8739 4.42668 15.867 5.82651 15.8739C6.03338 15.8739 6.10923 15.7774 6.13681 15.5912C6.22646 14.9775 6.323 14.3707 6.41954 13.7569C6.45402 13.5501 6.4747 13.3363 6.50918 13.0467C4.79215 13.9914 3.15787 14.8947 1.48911 15.8119ZM30.1063 15.5981C30.1132 15.5705 30.1201 15.536 30.127 15.5084C28.6444 14.7017 27.1687 13.888 25.6241 13.0467C25.8103 13.8949 25.962 14.6534 26.1413 15.405C26.162 15.4878 26.3137 15.5912 26.4033 15.5912C27.6376 15.605 28.872 15.5981 30.1063 15.5981ZM16.1287 1.99976C16.0942 2.00665 16.0666 2.02044 16.0322 2.02734C16.0322 2.95136 16.0322 3.88228 16.0322 4.80631C16.0322 5.12351 16.0184 5.44761 16.0184 5.76481C16.0184 5.98548 16.1149 6.08891 16.3563 6.08891C16.6183 6.08891 16.8803 6.13718 17.1424 6.14408C17.5561 6.15097 17.9698 6.14408 18.4319 6.14408C17.6595 4.75804 16.8941 3.3789 16.1287 1.99976ZM22.8451 8.84719C23.445 8.16452 24.0243 7.50253 24.6104 6.84054C24.5966 6.81986 24.5828 6.79917 24.569 6.78538C23.5967 7.08189 22.6176 7.3853 21.5901 7.70251C22.0176 8.09556 22.4107 8.46103 22.8451 8.84719ZM10.2604 7.76457C9.40538 7.48184 8.57789 7.20602 7.9228 6.98535C8.46067 7.56459 9.10197 8.24037 9.76396 8.95063C9.92945 8.55757 10.0881 8.17831 10.2604 7.76457Z" fill="#FFB800"/>
<path d="M16.9981 12.3847C16.5016 12.3985 15.7638 12.5295 15.0811 12.895C15.0329 12.9226 14.9777 12.957 14.9225 12.9639C14.0468 13.1018 14.0468 13.8466 13.9295 14.4672C13.8813 14.7361 13.9502 15.0395 14.0192 15.3085C14.1295 15.7429 14.7225 15.9636 15.1225 15.7498C15.3018 15.6533 15.3156 15.5636 15.1846 15.405C14.5915 14.6948 14.7156 14.3362 15.619 14.1776C16.2534 14.0672 16.9361 14.4879 17.2119 15.2188C17.3981 15.7222 17.5429 16.2394 17.6739 16.7566C17.7084 16.9014 17.6532 17.1083 17.5636 17.2324C17.1223 17.8461 16.6258 18.384 15.7845 18.4322C15.55 18.446 15.3087 18.5839 15.0949 18.7081C14.5364 19.0459 14.1985 19.0666 13.7365 18.6115C13.2813 18.1633 12.909 17.6323 12.4952 17.1496C12.3366 16.9634 12.178 16.7428 11.9643 16.6393C11.0678 16.2049 10.8265 15.7636 11.054 14.612C11.1575 14.0879 11.0678 13.6742 10.7437 13.2673C10.392 12.8191 10.3989 12.6536 10.7713 12.2123C11.2264 11.6813 11.6608 11.1297 12.1504 10.6332C13.0814 9.68847 14.2261 9.25404 15.5638 9.37127C15.7845 9.39195 16.0258 9.35058 16.2327 9.27473C16.6396 9.13681 16.9705 9.19887 17.336 9.43333C17.6118 9.61262 17.9566 9.73674 18.2876 9.77811C19.0186 9.88155 19.584 10.3367 20.2322 10.6263C20.2736 10.647 20.3012 10.6815 20.3288 10.7159C20.7563 11.2814 21.1838 11.8468 21.6114 12.4123C21.6183 12.4192 21.6251 12.433 21.6251 12.4399C21.8596 13.7569 22.6664 14.9637 22.2389 16.4187C21.9079 17.5427 21.4734 18.6184 21.039 19.701C20.8597 20.1493 20.5356 20.4527 20.0667 20.6113C19.853 20.6871 19.6668 20.8319 19.4599 20.9147C19.322 20.9698 19.1565 20.9974 19.0048 20.9905C18.3635 20.9492 17.8049 21.094 17.3705 21.6111C17.3084 21.687 17.1843 21.7284 17.0809 21.756C16.6947 21.8594 16.3086 21.9628 15.9155 22.0318C15.7431 22.0594 15.5638 22.0042 15.3845 21.9973C15.2742 21.9904 15.157 21.9835 15.0535 22.0111C14.1571 22.2731 13.2813 22.1283 12.4194 21.8594C12.178 21.7835 11.9505 21.6249 11.7505 21.4594C11.5436 21.2939 11.5988 21.094 11.847 21.0871C12.4194 21.0664 12.7986 20.7078 13.24 20.4182C13.964 19.9355 14.7432 19.5493 15.6052 19.3631C16.5982 19.1494 17.3843 18.6046 18.0945 17.9219C18.2325 17.7909 18.3428 17.6116 18.398 17.4323C18.5152 17.0807 18.6117 16.7566 18.9565 16.5221C19.0875 16.4325 19.1427 16.1635 19.1565 15.9705C19.2185 14.9913 18.9841 14.0603 18.5979 13.1639C18.2945 12.5295 17.998 12.364 16.9981 12.3847Z" fill="url(#paint0_linear_950_311)"/>
<path d="M0 28.3C0.0620614 27.9897 0.0965399 27.7621 0.151706 27.5415C0.489595 26.2244 0.655092 24.8866 0.606822 23.5282C0.599927 23.2937 0.668884 23.1765 0.896442 23.1075C1.23433 23.0041 1.55843 22.8662 1.95838 22.7145C1.87563 23.3558 1.79288 23.9212 1.70324 24.597C2.12388 24.4867 2.49625 24.4039 2.85482 24.2936C2.90999 24.2729 2.95136 24.1212 2.95136 24.0315C2.95826 23.6799 2.95826 23.3213 2.93068 22.9696C2.90999 22.742 2.98584 22.6248 3.2134 22.5972C3.5375 22.5628 3.86849 22.5214 4.24776 22.4731C4.1788 22.9282 4.09605 23.342 4.05468 23.7557C3.96503 24.6659 3.88228 25.5762 3.82022 26.4933C3.80643 26.6795 3.86849 26.8795 3.90987 27.0657C3.95124 27.2518 3.90987 27.376 3.71679 27.4311C3.3789 27.5277 3.04101 27.6311 2.65485 27.7483C2.72381 26.914 2.79276 26.1209 2.86861 25.2314C2.37212 25.3486 1.97217 25.4314 1.58601 25.5555C1.51016 25.5762 1.45499 25.7555 1.4481 25.8658C1.42052 26.3692 1.39293 26.8726 1.39293 27.376C1.39293 27.6035 1.31708 27.7414 1.11021 27.8242C0.772319 27.9414 0.43443 28.1 0 28.3Z" fill="#E7A31B"/>
<path d="M19.9702 23.1558C19.915 23.0455 19.8736 22.9144 19.7978 22.8248C19.522 22.5283 19.1841 22.3007 18.7634 22.2731C18.4462 22.2525 18.2325 22.5145 18.2876 22.8317C18.3566 23.2316 18.6531 23.4937 19.0737 23.5213C19.3289 23.5351 19.5771 23.5213 19.8323 23.5419C20.3908 23.5902 20.708 23.9695 20.6528 24.5211C20.5908 25.0935 20.3701 25.6107 20.0115 26.052C19.7081 26.4313 19.2737 26.4519 18.8462 26.3278C18.4945 26.2244 18.1566 26.0796 17.8256 25.9279C17.5291 25.7968 17.3774 25.5624 17.3636 25.2245C17.3567 24.9556 17.3084 24.6866 17.2671 24.3074C17.4394 24.4591 17.5429 24.5349 17.6394 24.6246C18.0807 25.0452 18.5979 25.3348 19.191 25.4659C19.6254 25.5693 19.8116 25.3624 19.6737 24.9418C19.5633 24.597 19.3909 24.3143 18.9634 24.3212C18.7841 24.3212 18.5979 24.2867 18.4186 24.266C17.8394 24.2039 17.3636 23.8385 17.2671 23.2868C17.0602 22.1076 17.4946 21.1698 18.8875 21.2457C19.2185 21.2664 19.5426 21.3284 19.8736 21.3836C20.1081 21.425 20.2391 21.5836 20.2322 21.818C20.2253 22.2318 20.1977 22.6455 20.177 23.0524C20.1012 23.0868 20.0322 23.1213 19.9702 23.1558Z" fill="#E7A31B"/>
<path d="M26.1626 23.4247C26.6453 23.2041 26.9832 23.273 27.2866 23.6247C27.8176 24.2315 28.3554 24.8383 28.8933 25.4452C28.9278 25.4314 28.9623 25.4107 28.9967 25.3969C28.7761 24.7832 28.5554 24.1626 28.3072 23.4868C28.6451 23.542 28.9692 23.5764 29.2864 23.6523C29.3691 23.673 29.445 23.8385 29.4656 23.9419C29.6518 25.1211 29.8242 26.2933 29.9897 27.4725C30.0035 27.5828 29.9414 27.7001 29.9139 27.8173C29.7966 27.7621 29.6449 27.7414 29.5691 27.6587C28.9209 26.9002 28.2865 26.1347 27.6452 25.3693C27.6107 25.3279 27.5762 25.2935 27.4521 25.2797C27.5624 25.8313 27.6728 26.3761 27.7831 26.9209C27.3004 27.1208 26.9487 26.9622 26.9625 26.4864C26.9901 25.39 26.7694 24.3625 26.1626 23.4247Z" fill="#E7A31B"/>
<path d="M15.1704 22.2593C15.198 22.5352 15.2187 22.7765 15.2531 23.0248C15.2738 23.1834 15.3221 23.3282 15.529 23.2799C15.7083 23.2385 15.9427 23.2661 15.922 22.9696C15.922 22.9351 15.922 22.9006 15.922 22.8662C15.9427 22.3007 15.9496 22.3076 16.5082 22.3145C16.8116 22.3214 16.9495 22.3904 16.9564 22.742C16.9633 23.5764 17.0184 24.4108 17.0529 25.2521C17.0529 25.3072 17.0667 25.3693 17.0667 25.4245C17.0667 25.6107 17.0943 25.9486 17.0667 25.9554C16.7771 26.0037 16.4806 26.0175 16.191 25.9899C16.1358 25.983 16.053 25.7693 16.0599 25.652C16.0668 25.1969 16.1013 24.7349 16.122 24.2798C16.122 24.2246 16.1082 24.1695 16.0944 24.066C15.8738 24.066 15.66 24.066 15.3911 24.066C15.4186 24.6935 15.4462 25.2866 15.4807 25.9279C15.1497 25.9279 14.8118 25.9348 14.4808 25.921C14.4326 25.921 14.3429 25.7899 14.3429 25.721C14.336 24.6866 14.336 23.6592 14.3498 22.6248C14.3498 22.5352 14.4739 22.4042 14.5705 22.3697C14.7498 22.3007 14.9497 22.2938 15.1704 22.2593Z" fill="#E7A31B"/>
<path d="M9.0127 22.7076C9.37817 22.6386 9.66089 22.5903 9.93672 22.5421C9.9781 22.5352 10.0539 22.5214 10.0677 22.549C10.3022 22.8731 10.5849 22.6524 10.8538 22.6248C11.1642 22.5903 11.4814 22.9006 11.4262 23.273C11.371 23.6385 11.2538 24.004 11.1159 24.3556C11.0331 24.5694 11.0607 24.7142 11.1779 24.8935C11.6124 25.5348 11.9847 26.2313 12.6192 26.714C12.6605 26.7416 12.6881 26.7967 12.7502 26.8795C12.0813 26.9346 11.5779 26.6933 11.1986 26.2451C10.847 25.8313 10.578 25.3417 10.2401 24.8452C10.2401 25.3486 10.2401 25.7968 10.2401 26.2658C10.1574 26.2864 10.0746 26.314 9.98499 26.3209C9.42644 26.3692 9.37127 26.314 9.37817 25.7555C9.38506 25.3279 9.38506 24.9073 9.38506 24.4798C9.38506 23.8936 9.42644 23.3006 9.0127 22.7076ZM10.2194 24.4177C10.516 24.1832 10.7918 23.9764 10.8056 23.5971C10.8125 23.4868 10.709 23.3489 10.6194 23.2661C10.5918 23.2385 10.4125 23.3213 10.3436 23.3902C10.0677 23.6799 10.1436 24.0315 10.2194 24.4177Z" fill="#E7A31B"/>
<path d="M24.5351 26.6312C24.6386 26.583 24.7627 26.5554 24.8455 26.4864C25.0247 26.3278 25.1971 26.1554 25.3488 25.9692C25.8591 25.3486 25.8867 24.6935 25.4454 24.004C25.2109 23.6316 24.8868 23.4937 24.5489 23.6247C24.149 23.7764 23.8387 24.2453 23.9214 24.6246C23.9628 24.8176 24.0593 25.0107 24.1697 25.1831C24.2179 25.2659 24.3765 25.3555 24.4386 25.3348C24.5351 25.2935 24.6317 25.1693 24.6524 25.059C24.68 24.9349 24.6524 24.7832 24.611 24.659C24.5696 24.5349 24.4731 24.4315 24.3903 24.2936C24.6731 24.1212 24.9558 24.1281 25.1833 24.2729C25.3006 24.3487 25.3419 24.6108 25.335 24.7901C25.3213 25.5003 25.1006 25.8589 24.6455 26.0037C24.2179 26.1416 23.8732 26.0106 23.5904 25.7003C23.0664 25.1349 23.0043 23.8867 23.4456 23.2523C23.7146 22.8662 24.0593 22.7076 24.542 22.811C25.4936 23.0179 26.0453 23.6247 26.1832 24.7142C26.2246 25.0176 26.2315 25.3348 26.2039 25.6382C26.135 26.4588 25.5212 26.907 24.6731 26.7829C24.6248 26.7347 24.5765 26.6864 24.5351 26.6312Z" fill="#1978DF"/>
<path d="M6.19922 26.5899C6.5509 25.6176 6.88189 24.6659 7.24737 23.7281C7.37149 23.4109 7.33701 23.211 7.0336 23.0661C6.97843 23.0386 6.93706 22.9765 6.83362 22.8869C7.33701 22.8041 7.77834 22.7214 8.22656 22.6593C8.27483 22.6524 8.36447 22.7627 8.38516 22.8317C8.61961 23.6661 8.84027 24.5073 9.06094 25.3417C9.10231 25.5072 9.15058 25.6727 9.15748 25.8451C9.17816 26.3554 9.13679 26.3968 8.61961 26.3416C8.52307 26.3278 8.40585 26.2382 8.35068 26.1485C8.27483 26.0244 8.26104 25.8658 8.19897 25.7348C8.13002 25.59 8.19208 25.3417 7.90246 25.3555C7.62663 25.3693 7.36459 25.3831 7.31632 25.7417C7.30253 25.8451 7.26116 25.9417 7.22668 26.0382C7.0405 26.5554 6.84742 26.6726 6.19922 26.5899ZM7.60594 24.7142C7.78523 24.6935 7.88867 24.6797 8.05416 24.6591C7.97142 24.4729 7.90246 24.335 7.8404 24.197C7.81281 24.2039 7.78523 24.2039 7.75765 24.2108C7.70938 24.3556 7.668 24.5005 7.60594 24.7142Z" fill="#E7A31B"/>
<path d="M32.2441 27.9345C31.6718 27.7828 31.0925 27.6449 30.5271 27.4725C30.4374 27.4449 30.334 27.3001 30.3133 27.1967C30.0995 26.1554 29.8996 25.1142 29.7065 24.066C29.6927 24.004 29.8375 23.8454 29.8996 23.8523C30.3547 23.9143 30.8098 23.9695 31.2442 24.1074C31.6097 24.2177 31.4718 24.6039 31.5063 24.9211C31.3063 24.8108 31.1132 24.7004 30.8029 24.528C30.8512 24.8521 30.865 25.0866 30.9201 25.3004C30.9339 25.3555 31.0512 25.4176 31.127 25.4245C31.6856 25.5072 31.8304 25.6727 31.8235 26.3416C31.5683 26.3002 31.3201 26.2658 31.0718 26.2244C30.927 26.6864 30.9684 26.7553 31.4304 26.8105C32.1269 26.9071 32.4027 27.2587 32.2441 27.9345Z" fill="#E7A31B"/>
<path d="M20.7627 23.8729C20.7213 23.4523 20.6868 23.0937 20.6523 22.7558C21.4591 22.7558 22.2315 22.7489 23.0107 22.7627C23.0589 22.7627 23.1486 22.8869 23.1486 22.9489C23.1486 23.1351 23.1072 23.3282 23.0796 23.5557C22.9624 23.5006 22.8934 23.4661 22.8245 23.4385C22.6038 23.3627 22.4383 23.4316 22.4521 23.673C22.5073 24.4246 22.5694 25.1762 22.6728 25.9279C22.7004 26.114 22.8521 26.2864 22.99 26.5347C22.4935 26.5347 22.0522 26.5347 21.6522 26.5347C21.6729 25.721 21.7005 24.9073 21.7005 24.1005C21.7005 23.9419 21.6522 23.7281 21.5419 23.6385C21.3557 23.4868 21.135 23.5419 20.9695 23.7488C20.9282 23.7902 20.873 23.8109 20.7627 23.8729Z" fill="#E7A31B"/>
<path d="M6.18525 23.7488C6.07492 23.7212 5.97838 23.673 5.90253 23.6868C5.71634 23.7212 5.4612 23.735 5.37845 23.8591C5.28191 24.004 5.3095 24.2522 5.33708 24.4522C5.34398 24.4936 5.56464 24.528 5.68876 24.528C5.85426 24.528 6.06113 24.3763 6.13698 24.6659C6.20594 24.9418 6.06803 25.1486 5.7853 25.2107C5.22675 25.3417 5.19917 25.3762 5.28881 25.9761C5.45431 25.9417 5.6198 25.8796 5.7853 25.8865C5.90942 25.8865 6.07492 25.9348 6.13698 26.0244C6.26111 26.1968 6.20594 26.3968 5.99217 26.4726C5.44741 26.6657 4.88886 26.845 4.24756 27.0519C4.28893 26.6795 4.3441 26.4037 4.35099 26.1209C4.38547 25.3693 4.41306 24.6108 4.42685 23.8591C4.43374 23.342 4.41306 23.342 4.91644 23.3006C5.21296 23.2799 5.50947 23.2523 5.80599 23.2454C6.23352 23.2178 6.25421 23.2523 6.18525 23.7488Z" fill="#E7A31B"/>
<path d="M12.3781 26.0865C12.7918 25.1142 12.5711 24.1833 12.6125 23.2661C12.5642 23.2385 12.5229 23.211 12.4746 23.1903C12.2264 23.3902 11.9712 23.5902 11.6609 23.8385C11.6609 23.404 11.654 23.0179 11.6678 22.6248C11.6678 22.5834 11.7781 22.5076 11.8471 22.5076C12.5849 22.4593 13.3297 22.418 14.1296 22.3766C14.1089 22.6938 14.0951 22.9558 14.0744 23.2179C14.0399 23.2385 14.0054 23.2592 13.971 23.273C13.9365 23.2041 13.9158 23.1144 13.8606 23.0799C13.64 22.9351 13.3641 23.0524 13.3641 23.3075C13.3779 24.0591 13.4124 24.8177 13.4814 25.5624C13.4952 25.7348 13.6607 25.8934 13.771 26.0934C13.3021 26.0865 12.847 26.0865 12.3781 26.0865Z" fill="#E7A31B"/>
<path d="M19.6874 23.0317C19.3357 23.0317 19.0668 23.0524 18.8048 23.0179C18.7151 23.0041 18.6462 22.8455 18.5703 22.7558C18.66 22.6869 18.7565 22.549 18.8461 22.549C19.1702 22.549 19.453 22.6731 19.6874 23.0317Z" fill="#23E1FD"/>
<path d="M1.48975 15.8119C3.1654 14.8878 4.79969 13.9914 6.50982 13.0467C6.47534 13.3432 6.44776 13.5501 6.42018 13.7569C6.33053 14.3707 6.2271 14.9775 6.13745 15.5912C6.10987 15.7774 6.02712 15.8739 5.82715 15.8739C4.42732 15.867 3.02749 15.867 1.62766 15.867C1.60008 15.867 1.57249 15.8463 1.48975 15.8119Z" fill="#AF7D19"/>
<path d="M30.1067 15.5981C28.8724 15.5981 27.6381 15.605 26.4037 15.5912C26.3141 15.5912 26.1624 15.4878 26.1417 15.405C25.9624 14.6534 25.8107 13.8948 25.6245 13.0467C27.1692 13.8948 28.6448 14.7016 30.1274 15.5084C30.1205 15.5429 30.1136 15.5705 30.1067 15.5981Z" fill="#AF7D19"/>
<path d="M16.1289 1.99976C16.8943 3.3789 17.6597 4.75804 18.4321 6.15097C17.97 6.15097 17.5563 6.15787 17.1426 6.15097C16.8805 6.14408 16.6185 6.09581 16.3564 6.09581C16.1151 6.09581 16.0186 5.99927 16.0186 5.77171C16.0186 5.45451 16.0323 5.13041 16.0323 4.81321C16.0323 3.88918 16.0323 2.95826 16.0323 2.03423C16.0599 2.02044 16.0944 2.01355 16.1289 1.99976Z" fill="#AF7D19"/>
<path d="M22.8454 8.84719C22.4179 8.45414 22.0248 8.09556 21.5835 7.69561C22.6179 7.37841 23.5901 7.08189 24.5624 6.77848C24.5762 6.79917 24.59 6.81985 24.6038 6.83365C24.0246 7.50253 23.4453 8.16452 22.8454 8.84719Z" fill="#AF7D19"/>
<path d="M10.2609 7.76457C10.0885 8.17831 9.93683 8.55757 9.77133 8.95753C9.10245 8.24727 8.46804 7.56459 7.93018 6.99225C8.57837 7.20602 9.40586 7.48184 10.2609 7.76457Z" fill="#AF7D19"/>
<defs>
<linearGradient id="paint0_linear_950_311" x1="13" y1="9" x2="18.5" y2="19.5" gradientUnits="userSpaceOnUse">
<stop stop-color="#1552D4"/>
<stop offset="1" stop-color="#23E1FD"/>
</linearGradient>
</defs>
</svg>
