<svg
  width="24"
  height="24"
  viewBox="0 0 24 24"
  fill="none"
  xmlns="http://www.w3.org/2000/svg"
>
<path
    d="M18.85 5.05C17.45 3.65 15.15 3.65 13.75 5.05L9.35002 9.35C7.95002 10.85 7.95002 13.05 9.35002 14.55C9.45002 14.65 9.65002 14.75 9.75002 14.85L11.25 13.35C11.15 13.25 10.95 13.15 10.85 13.05C10.25 12.45 10.25 11.45 10.85 10.85L15.25 6.45C15.85 5.85 16.85 5.85 17.45 6.45C18.05 7.05 18.05 8.05 17.45 8.65L16.15 9.95C16.55 10.75 16.65 11.65 16.55 12.45L18.85 10.15C20.35 8.75 20.35 6.45 18.85 5.05Z"
    fill="#7C8FA0"
    fill-opacity="0.6"
  />
<path
    d="M14.15 9.04999L12.65 10.55C12.65 10.55 12.95 10.75 13.05 10.85C13.65 11.45 13.65 12.45 13.05 13.05L8.65 17.45C8.05 18.05 7.05 18.05 6.45 17.45C5.85 16.85 5.85 15.85 6.45 15.25L7.75 13.95C7.35 13.15 7.65 12.65 7.35 11.45L5.05 13.75C3.65 15.15 3.65 17.45 5.05 18.85C6.45 20.25 8.75 20.25 10.15 18.85L14.55 14.45C15.95 13.05 15.95 10.75 14.55 9.34999C14.35 9.24999 14.15 9.04999 14.15 9.04999Z"
    fill="#7C8FA0"
    fill-opacity="0.6"
  />
</svg>
