<svg width="26" height="28" viewBox="0 0 26 28" fill="none" xmlns="http://www.w3.org/2000/svg">
<path d="M1.60449 27.7204C1.99159 27.2204 2.31955 26.7903 2.6475 26.3602C3.18514 25.6613 3.71739 24.9516 4.2604 24.258C4.38406 24.0967 4.42169 23.9301 4.42169 23.7365C4.42169 20.9086 4.43245 18.0752 4.43245 15.2473C4.43782 11.3064 4.43245 7.36558 4.45395 3.42473C4.45395 3 4.34105 2.68279 4.06148 2.37634C3.57761 1.83871 3.11524 1.27957 2.6475 0.725806C2.5561 0.618279 2.44858 0.521505 2.33567 0.435483C2.23352 0.354838 2.15825 0.258064 2.20664 0.112903C2.26041 -0.0268817 2.38406 0.016129 2.48621 0.016129C3.81954 0.0107527 5.15288 0.0107527 6.49158 0.00537634C7.63674 0.00537634 8.78728 0.0107527 9.93244 0C10.1475 0 10.2013 0.0591397 10.2013 0.268817C10.1959 7.97311 10.1959 15.6774 10.1959 23.3817C10.1959 23.4193 10.1959 23.4516 10.1959 23.4892C10.2013 23.7688 10.2873 23.8709 10.5615 23.8709C11.169 23.8709 11.7765 23.8548 12.3894 23.8548C14.5023 23.8548 16.6152 23.8333 18.7335 23.8602C20.6421 23.8871 22.5507 23.8978 24.4539 23.8978C24.6421 23.8978 24.7174 23.9301 24.5883 24.1129C24.5184 24.2043 24.4647 24.3118 24.384 24.3978C23.384 25.4462 22.384 26.4946 21.384 27.543C21.2765 27.6559 21.169 27.7043 21.0131 27.7096C15.0937 27.758 9.17437 27.7204 3.24965 27.7258C2.72277 27.7204 2.20664 27.7204 1.60449 27.7204Z" fill="#CD9D3D"/>
<path d="M11.5183 12.3978C11.5183 9.84408 11.5183 7.29569 11.513 4.74193C11.513 4.51613 11.5398 4.41398 11.8194 4.38709C13.9 4.16129 15.8785 4.49462 17.7549 5.40322C19.0129 6.01075 20.099 6.86021 21.0398 7.89247C21.2011 8.06451 21.2764 8.17203 21.0237 8.36558C19.8033 9.29569 18.6043 10.2473 17.3947 11.1935C17.0452 11.4677 16.7011 11.7527 16.3463 12.0215C16.228 12.1075 16.2172 12.215 16.2334 12.3279C16.2979 12.871 16.2871 13.414 16.2925 13.957C16.3033 14.6129 16.2334 15.2527 16.0721 15.8871C15.8732 16.6774 15.5022 17.3817 15.0291 18.0376C14.7925 18.3602 14.5506 18.6881 14.271 18.9731C13.8785 19.3763 13.4377 19.7312 12.9269 19.9785C12.5613 20.1559 12.2065 20.3763 11.7818 20.3924C11.5828 20.4032 11.5022 20.3656 11.5076 20.1344C11.5183 17.5537 11.513 14.9785 11.5183 12.3978Z" fill="#177685"/>
<path d="M16.1584 22.5376C14.7175 22.5376 13.2767 22.5322 11.8305 22.543C11.5509 22.543 11.4649 22.4516 11.5025 22.1881C11.524 22.0269 11.4649 21.8387 11.5348 21.715C11.6047 21.586 11.8143 21.6774 11.9595 21.6451C13.2014 21.3226 14.2498 20.6774 15.1423 19.7634C15.7821 19.1075 16.3089 18.3656 16.7175 17.5484C17.1692 16.6398 17.4218 15.672 17.4649 14.6505C17.481 14.3064 17.5401 13.957 17.524 13.6075C17.5132 13.3602 17.4326 13.1183 17.4541 12.8602C17.4649 12.715 17.5079 12.6183 17.6315 12.5269C18.9864 11.4677 20.3412 10.3978 21.696 9.33332C21.7606 9.28494 21.8304 9.2473 21.895 9.19354C21.9756 9.12902 22.0186 9.12902 22.0778 9.2258C22.8197 10.3978 23.3358 11.6559 23.6046 13.0269C23.8304 14.1828 23.8466 15.3387 23.7175 16.4946C23.6476 17.1236 23.5079 17.7419 23.3036 18.3441C22.9917 19.2795 22.5778 20.172 22.0186 20.9946C21.6907 21.4731 21.3251 21.9193 20.9541 22.3656C20.8412 22.5054 20.696 22.5376 20.524 22.5376C19.0616 22.5322 17.61 22.5322 16.1584 22.5376Z" fill="#27A0A8"/>
<path d="M12.9001 1.97312C14.8786 1.97312 16.6743 2.36022 18.3732 3.15054C20.8625 4.30645 22.8141 6.06989 24.2066 8.44623C24.9055 9.6344 25.3894 10.9032 25.6797 12.2473C25.9646 13.5753 26.0668 14.914 25.9109 16.2688C25.7281 17.871 25.3033 19.4086 24.5506 20.8441C24.2603 21.3978 23.9431 21.9301 23.5883 22.4462C23.513 22.5537 23.427 22.6075 23.3033 22.6075C22.9431 22.6075 22.5883 22.6129 22.2281 22.6075C22.1689 22.6075 22.0937 22.6236 22.0722 22.543C22.056 22.4838 22.1044 22.4462 22.1367 22.4032C23.3356 20.9623 24.1044 19.3064 24.5076 17.4892C24.7926 16.1935 24.8679 14.8763 24.6904 13.543C24.5238 12.2957 24.2012 11.0968 23.6689 9.95698C23.2066 8.96236 22.6098 8.05913 21.884 7.23118C21.2334 6.48924 20.513 5.82795 19.7012 5.26344C18.4431 4.38709 17.0668 3.77957 15.5668 3.44624C14.3571 3.17742 13.1313 3.0914 11.8948 3.20968C11.5453 3.24193 11.5399 3.23118 11.5399 2.8871C11.5399 2.6828 11.5453 2.47312 11.5399 2.26882C11.5345 2.10753 11.5883 2.02151 11.7657 2.02151C12.1797 2.01613 12.5883 1.94624 12.9001 1.97312Z" fill="#CD9D3D"/>
<path d="M3.23352 6.42472C3.23352 7.02687 3.23352 7.54838 3.23352 8.07526C3.23352 8.27956 3.1475 8.44622 3.03459 8.61827C2.3518 9.67203 1.86793 10.8118 1.55073 12.0269C1.16363 13.5161 1.08836 15.0269 1.28728 16.543C1.43245 17.6398 1.7389 18.7043 2.19051 19.7204C2.4432 20.2903 2.74965 20.8387 3.08298 21.3656C3.30879 21.7204 3.169 22.1183 3.21201 22.4892C3.2389 22.7043 3.12599 22.8387 2.98083 22.9677C2.88406 23.0591 2.83567 23.0484 2.74965 22.9408C2.22814 22.2795 1.79804 21.5699 1.41094 20.8172C0.884059 19.8118 0.513092 18.7473 0.276533 17.6344C-0.0191656 16.258 -0.0675526 14.8709 0.0829848 13.4731C0.233522 12.0699 0.625995 10.7258 1.22277 9.4516C1.69589 8.43547 2.30341 7.49999 3.01309 6.6344C3.0561 6.57526 3.12062 6.52687 3.23352 6.42472Z" fill="#6F5322"/>
<path d="M3.23338 10.7527C3.23338 13.6451 3.23338 16.4892 3.23338 19.3656C2.00758 17.9516 2.0022 12.4624 3.23338 10.7527Z" fill="#177685"/>
</svg>
