<svg width="60" height="60" viewBox="0 0 60 60" fill="none" xmlns="http://www.w3.org/2000/svg">
<path d="M28.9351 16.7282C28.9351 17.2088 28.9351 17.6714 28.9351 18.134C28.9651 23.3363 28.9291 28.5446 28.9111 33.747C28.9111 34.2696 28.9051 34.7863 28.9231 35.3089C28.9291 35.5432 28.851 35.6994 28.6888 35.8556C25.0664 39.3398 21.456 42.8301 17.8396 46.3203C17.6834 46.4705 17.5332 46.6387 17.365 46.7769C17.1908 46.9211 17.2208 46.9931 17.395 47.1253C19.7199 48.8374 22.279 50.0689 25.0964 50.6937C31.4642 52.1054 37.3213 50.9339 42.6438 47.1433C42.9502 46.921 42.9502 46.9211 42.6799 46.6567C38.9433 43.0403 35.2128 39.4299 31.4762 35.8195C31.344 35.6934 31.278 35.5732 31.278 35.381C31.284 29.1934 31.284 23.0059 31.29 16.8244C31.29 16.8063 31.296 16.7823 31.302 16.7463C31.4101 16.8123 31.4281 16.9265 31.4702 17.0166C33.3144 20.9874 35.1587 24.9583 36.9969 28.9291C37.069 29.0853 37.1591 29.2235 37.2853 29.3436C41.0098 32.936 44.7344 36.5284 48.4469 40.1268C48.6271 40.301 48.6812 40.2709 48.7893 40.0607C50.171 37.4775 51 34.7322 51.2403 31.8126C51.6848 26.4301 50.2551 21.5822 47.0953 17.2268C46.4344 16.3197 45.6895 15.4787 44.8785 14.7038C44.7284 14.5596 44.7284 14.4755 44.8605 14.3193C46.6447 12.2648 48.4169 10.1983 50.189 8.13176C50.3152 7.98758 50.3813 7.96355 50.5314 8.10773C54.7666 12.1386 57.6381 16.9745 59.0859 22.6455C59.8668 25.7152 60.1552 28.833 59.9209 31.9928C59.4463 38.3967 57.2176 44.1216 53.1086 49.0657C48.7713 54.286 43.2626 57.6802 36.6485 59.194C30.4369 60.6117 24.3335 60.1131 18.4764 57.6081C9.66962 53.8415 3.84251 47.2875 1.19929 38.0843C-1.0895 30.1366 -0.0622517 22.4772 3.93863 15.2324C5.40441 12.5772 7.27269 10.2283 9.48339 8.14377C9.66361 7.97557 9.7417 7.9996 9.89189 8.17381C11.658 10.2343 13.4242 12.2888 15.2024 14.3373C15.3525 14.5055 15.2985 14.5836 15.1663 14.7158C12.5772 17.2629 10.7149 20.2545 9.65159 23.7328C8.84661 26.376 8.57628 29.0733 8.81057 31.8307C9.06288 34.7803 9.87987 37.5556 11.2976 40.1568C11.4177 40.3791 11.4838 40.3851 11.664 40.2109C15.4186 36.5764 19.1792 32.948 22.9338 29.3196C23.0419 29.2115 23.12 29.0913 23.1861 28.9531C25.0484 24.9342 26.9106 20.9214 28.7789 16.9025C28.809 16.8484 28.8029 16.7643 28.9351 16.7282Z" fill="white"/>
<path d="M30.4428 0.0035702C31.6803 -0.0264664 33.2783 0.135731 34.8702 0.388039C36.0417 0.574266 37.1951 0.850603 38.3365 1.175C40.0125 1.65558 41.6285 2.28635 43.1964 3.04328C44.8063 3.81822 46.3202 4.76137 47.768 5.81265C48.0383 6.0109 48.3026 6.23317 48.5729 6.4254C48.7532 6.55155 48.7712 6.64767 48.621 6.82188C47.4796 8.11947 46.3502 9.42306 45.2209 10.7327C44.5781 11.4776 43.9413 12.2285 43.3165 12.9854C43.1844 13.1476 43.0943 13.1596 42.9321 13.0335C41.5324 11.9581 40.0185 11.0751 38.3965 10.3842C37.2732 9.90965 36.1138 9.51917 34.9243 9.24284C33.1041 8.82232 31.2658 8.61807 29.3976 8.67815C28.2862 8.71419 27.1809 8.82232 26.0935 9.03859C24.4235 9.375 22.8015 9.86159 21.2456 10.5705C19.9721 11.1532 18.7646 11.85 17.6172 12.649C17.443 12.7691 17.2688 12.8833 17.1186 13.0274C16.9564 13.1836 16.8663 13.1356 16.7341 12.9854C15.6468 11.7179 14.5595 10.4563 13.4721 9.19478C12.7933 8.40782 12.1145 7.61485 11.4357 6.82789C11.3035 6.6717 11.2735 6.5876 11.4717 6.43742C13.5322 4.81544 15.7669 3.48181 18.1699 2.44855C19.918 1.69764 21.7202 1.11493 23.5885 0.706427C25.7211 0.237856 27.8777 0.0035702 30.4428 0.0035702Z" fill="#F99C1F"/>
</svg>
