<svg width="60" height="36" viewBox="0 0 60 36" fill="none" xmlns="http://www.w3.org/2000/svg">
<path d="M59.9619 25.4037C59.9619 26.4717 59.9619 27.5779 59.9619 28.6459C59.2753 28.6459 58.6268 28.6459 57.9402 28.6459C57.7877 28.6459 57.8258 28.6459 57.8258 28.7603C57.8258 29.9809 57.8258 31.2015 57.8258 32.4221C57.8258 32.9561 57.8258 33.452 57.8258 33.986C57.8258 34.52 57.4825 34.9396 56.9866 35.0922C56.8341 35.1303 56.6815 35.1303 56.5671 35.1303C38.8684 35.1303 21.1697 35.1303 3.47107 35.1303C3.43293 35.1303 3.39479 35.1303 3.35664 35.1303C3.12778 35.1303 2.93706 35.054 2.74634 34.9396C2.40305 34.7107 2.21233 34.3674 2.21233 33.9479C2.21233 32.3077 2.21233 30.6294 2.21233 28.9892C2.21233 28.951 2.21233 28.9129 2.21233 28.8748C2.21233 28.8366 2.21233 28.7985 2.13605 28.7985C2.0979 28.7985 2.0979 28.7985 2.05976 28.7985C1.44946 28.7985 0.839161 28.7985 0.190718 28.7985C0 28.8366 0 28.8366 0 28.684C0 27.6923 0 26.7006 0 25.7088C0 25.6707 0 25.6707 0 25.6325C0 25.5944 0 25.5563 0.0762873 25.5563C0.114431 25.5563 0.114431 25.5563 0.152575 25.5563C0.762873 25.5563 1.41132 25.5563 2.02161 25.5563C2.17419 25.5563 2.13605 25.5944 2.13605 25.4418C2.13605 20.2924 2.13605 15.143 2.13605 9.99364C2.13605 9.9555 2.13605 9.9555 2.13605 9.91736C2.13605 9.87921 2.13605 9.87921 2.0979 9.87921C2.05976 9.87921 2.05976 9.87921 2.02161 9.87921C1.41132 9.87921 0.762873 9.87921 0.152575 9.87921C0 9.87921 0 9.87921 0 9.72664C0 8.65861 0 7.55245 0 6.48442C0 6.44628 0 6.44628 0 6.40814C0 6.36999 0 6.33185 0.0762873 6.33185C0.114431 6.33185 0.114431 6.33185 0.152575 6.33185C0.762873 6.33185 1.37317 6.33185 1.98347 6.33185C2.13605 6.33185 2.13605 6.36999 2.13605 6.17928C2.13605 4.5391 2.13605 2.93706 2.13605 1.29688C2.13605 1.25874 2.13605 1.18245 2.13605 1.14431C2.13605 0.610299 2.51748 0.190718 3.01335 0.0381437C3.05149 0.0381437 3.12778 0.0381437 3.16592 0C21.0553 0.0762873 38.9065 0.0762873 56.7959 0.0762873C56.7959 0.0762873 56.7959 0.0762874 56.8341 0.114431C57.3299 0.190718 57.6351 0.495868 57.7877 0.953592C57.8258 1.06802 57.8258 1.18245 57.8258 1.33503C57.8258 2.97521 57.8258 4.61539 57.8258 6.25556C57.8258 6.36999 57.8258 6.36999 57.9402 6.36999C57.9402 6.36999 57.9402 6.36999 57.9784 6.36999C58.6268 6.36999 59.2371 6.36999 59.8856 6.36999C59.9237 6.36999 59.9619 6.36999 60 6.36999C60 7.39987 60 8.42975 60 9.45963C59.3516 9.45963 58.665 9.45963 58.0165 9.45963C57.8258 9.45963 57.864 9.42149 57.864 9.61221C57.864 14.8379 57.864 20.0636 57.864 25.2511C57.864 25.2893 57.864 25.2893 57.864 25.3274C57.864 25.4037 57.864 25.4037 57.9402 25.4037C57.9784 25.4037 57.9784 25.4037 58.0165 25.4037C58.6268 25.4037 59.2371 25.4037 59.8856 25.4037C59.8856 25.4037 59.9237 25.4037 59.9619 25.4037ZM29.9809 31.8881C38.0674 31.8881 46.1538 31.8881 54.2784 31.8881C54.431 31.8881 54.431 31.8881 54.431 31.7355C54.431 22.314 54.431 12.8926 54.431 3.50922C54.431 3.35664 54.431 3.35664 54.2784 3.35664C38.1055 3.35664 21.8945 3.35664 5.72155 3.35664C5.56898 3.35664 5.56898 3.35664 5.56898 3.50922C5.56898 12.9307 5.56898 22.314 5.56898 31.7355C5.56898 31.8881 5.56898 31.8881 5.72155 31.8881C13.808 31.8881 21.8945 31.8881 29.9809 31.8881Z" fill="white"/>
<path d="M39.4024 17.1264C39.4024 17.1645 39.4406 17.2026 39.4787 17.2408C39.7457 17.5078 40.0127 17.7748 40.2797 18.0418C40.356 18.1181 40.356 18.1562 40.356 18.2707C40.356 21.017 40.356 23.7634 40.356 26.5478C40.356 26.6623 40.356 26.7767 40.356 26.8911C40.2797 27.6922 39.6313 28.3787 38.8303 28.4932C38.7159 28.5313 38.6014 28.5313 38.4489 28.5313C36.9231 28.5313 35.3974 28.5313 33.9098 28.5313C33.2995 28.5313 32.7273 28.5313 32.117 28.5313C32.0789 28.5313 32.0789 28.5313 32.0407 28.5313C32.0026 28.5313 32.0026 28.4932 32.0026 28.455C32.0026 28.4169 32.0026 28.3787 32.0026 28.3406C32.0026 25.1747 32.0026 22.0087 32.0026 18.881C32.0026 18.7665 31.9644 18.7284 31.8881 18.6521C31.7356 18.4995 31.583 18.347 31.4304 18.1944C31.3923 18.1562 31.3541 18.1181 31.3541 18.0418C31.3541 17.3934 31.3541 16.7449 31.3541 16.0965C31.3541 16.0202 31.3541 15.982 31.4304 15.9439C31.583 15.7913 31.7356 15.6388 31.8881 15.4862C31.9644 15.4099 32.0026 15.3336 32.0026 15.2573C32.0026 13.2357 32.0026 11.2141 32.0026 9.23061C32.0026 8.4296 32.0026 7.66672 32.0026 6.86571C32.0026 6.82756 32.0026 6.82756 32.0026 6.78942C32.0026 6.67499 32.0026 6.67499 32.117 6.67499C34.1768 6.67499 36.2365 6.67499 38.2963 6.67499C39.1736 6.67499 39.9365 7.28529 40.1272 8.16259C40.1653 8.31517 40.1653 8.46774 40.1653 8.62032C40.1653 9.68834 40.1653 10.7564 40.1653 11.8244C40.1653 13.312 40.1653 14.7996 40.1653 16.3253C40.1653 16.4016 40.1272 16.4779 40.089 16.5542C39.8602 16.6686 39.6313 16.8975 39.4024 17.1264ZM36.9231 22.0469C36.9231 21.017 36.9231 19.9871 36.9231 18.9573C36.9231 18.9191 36.9231 18.881 36.9231 18.8428C36.9231 18.8047 36.9231 18.8047 36.885 18.8047C36.8468 18.8047 36.8468 18.8047 36.8087 18.8047C36.3891 18.8047 35.9695 18.8047 35.5499 18.8047C35.5118 18.8047 35.5118 18.8047 35.4736 18.8047C35.4355 18.8047 35.4355 18.8047 35.4355 18.8428C35.4355 18.881 35.4355 18.881 35.4355 18.9191C35.4355 21.017 35.4355 23.1149 35.4355 25.1747C35.4355 25.2891 35.4355 25.2891 35.5499 25.2891C35.9695 25.2891 36.3891 25.2891 36.8468 25.2891C36.9612 25.2891 36.9612 25.2891 36.9612 25.1747C36.9612 25.1365 36.9612 25.1365 36.9612 25.0984C36.9231 24.1066 36.9231 23.0768 36.9231 22.0469ZM35.4355 12.5873C35.4355 13.4646 35.4355 14.3419 35.4355 15.2192C35.4355 15.3336 35.4355 15.3336 35.5499 15.3336C35.9314 15.3336 36.2747 15.3336 36.6561 15.3336C36.8087 15.3336 36.7705 15.3336 36.7705 15.2192C36.7705 13.7697 36.7705 12.3203 36.7705 10.8326C36.7705 10.5656 36.7705 10.2986 36.7705 10.0316C36.7705 9.9172 36.7705 9.9172 36.6561 9.9172C36.2747 9.9172 35.9314 9.9172 35.5499 9.9172C35.3974 9.9172 35.4355 9.87906 35.4355 10.0316C35.4355 10.9089 35.4355 11.7481 35.4355 12.5873Z" fill="white"/>
<path d="M29.7902 16.8977C29.7902 20.1018 29.7902 23.344 29.7902 26.5481C29.7902 26.8914 29.7139 27.2347 29.5614 27.5017C29.2181 28.112 28.6841 28.4553 27.9593 28.4553C26.8532 28.4553 25.747 28.4553 24.6408 28.4553C23.8779 28.4553 23.1151 28.4553 22.3903 28.4553C21.6656 28.4553 21.1316 28.0738 20.7502 27.4635C20.5976 27.1965 20.5594 26.9295 20.5594 26.6244C20.5594 26.5862 20.5594 26.5099 20.5594 26.4718C20.5594 20.0255 20.5594 13.5792 20.5594 7.0948C20.5594 6.94223 20.5594 6.94223 20.712 6.94223C21.78 6.94223 22.8481 6.94223 23.8779 6.94223H23.9161C24.0305 6.94223 24.0305 6.94223 24.0305 7.05666C24.0305 7.0948 24.0305 7.0948 24.0305 7.13295C24.0305 13.1215 24.0305 19.1101 24.0305 25.0986C24.0305 25.2893 23.9924 25.2512 24.1831 25.2512C24.8315 25.2512 25.5181 25.2512 26.1666 25.2512C26.2047 25.2512 26.2047 25.2512 26.2429 25.2512C26.3191 25.2512 26.3191 25.2512 26.3191 25.1749C26.3191 25.1368 26.3191 25.0986 26.3191 25.0605C26.3191 19.0719 26.3191 13.0834 26.3191 7.0948C26.3191 6.94223 26.3191 6.94223 26.4717 6.94223C27.5397 6.94223 28.6078 6.94223 29.6376 6.94223C29.6758 6.94223 29.6758 6.94223 29.7139 6.94223C29.7521 6.94223 29.7902 6.94223 29.7902 7.01852C29.7902 7.05666 29.7902 7.0948 29.7902 7.13295C29.7902 10.3752 29.7902 13.6174 29.7902 16.8977Z" fill="white"/>
<path d="M42.454 17.5461C42.454 14.5327 42.454 11.5194 42.454 8.50603C42.454 8.04831 42.5684 7.62873 42.8736 7.28543C43.255 6.86585 43.7127 6.63699 44.2849 6.59885C45.925 6.59885 47.6034 6.59885 49.2435 6.59885C50.2353 6.59885 51.0744 7.43801 51.0744 8.42974C51.0744 8.50603 51.0744 8.54417 51.0744 8.62046C51.0744 9.68848 51.0744 10.7946 51.0744 11.8627C51.0744 12.0915 51.0363 12.1297 50.8074 12.1297C50.7311 12.1297 50.693 12.1297 50.6167 12.1297C49.892 12.1297 49.1673 12.1297 48.4425 12.1297C48.3662 12.1297 48.29 12.1297 48.2137 12.1297C48.1374 12.1297 48.0992 12.0534 48.0611 11.9771C48.0611 11.939 48.0611 11.8627 48.0611 11.8245C48.0611 11.2524 48.0611 10.6802 48.0611 10.1081C48.0611 10.0699 48.0611 10.0699 48.0611 10.0318C48.0611 9.99363 48.0229 9.99363 47.9848 9.99363C47.9467 9.99363 47.9467 9.99363 47.9085 9.99363C47.2982 9.99363 46.6879 9.99363 46.0776 9.99363C46.0395 9.99363 46.0395 9.99363 46.0013 9.99363C45.9632 9.99363 45.9632 9.99363 45.9632 10.0318C45.9632 10.0699 45.9632 10.0699 45.9632 10.1081C45.9632 15.1812 45.9632 20.2161 45.9632 25.2892C45.9632 25.4418 45.9632 25.4037 46.0776 25.4037C46.6116 25.4037 47.1075 25.4037 47.6415 25.4037C47.6797 25.4037 47.6797 25.4037 47.7178 25.4037C47.7559 25.4037 47.7559 25.4037 47.7559 25.3655C47.7559 25.3274 47.7559 25.3274 47.7559 25.2892C47.7559 22.9625 47.7559 20.6357 47.7559 18.309V18.2708C47.7559 18.1945 47.7559 18.1945 47.6797 18.1945C47.5271 18.1945 47.3745 18.1945 47.2601 18.1945C47.1456 18.1945 47.1456 18.1564 47.1075 18.0801C47.1075 18.0419 47.1075 18.0038 47.1075 17.9657C47.1075 17.2028 47.1075 16.4781 47.1075 15.7152C47.1075 15.4863 47.1075 15.4863 47.3364 15.4863C48.4807 15.4863 49.5868 15.4863 50.7311 15.4863C50.96 15.4863 50.9982 15.4863 50.9982 15.7152C50.9982 19.3388 50.9982 22.9625 50.9982 26.5861C50.9982 27.4634 50.426 28.1882 49.625 28.417C49.4343 28.4552 49.2435 28.4933 49.0528 28.4933C47.4508 28.4933 45.8488 28.4933 44.2467 28.4933C44.2086 28.4933 44.2086 28.4933 44.1704 28.4933C43.4839 28.4552 42.988 28.1882 42.6065 27.616C42.4158 27.3109 42.3395 27.0057 42.3395 26.6624C42.3395 26.6243 42.3395 26.548 42.3395 26.5098C42.454 23.4965 42.454 20.5213 42.454 17.5461Z" fill="white"/>
<path d="M18.3853 13.1977C18.3853 14.7616 18.3853 16.3255 18.3853 17.9275C18.3853 18.6904 17.9275 19.3769 17.2028 19.644C16.9739 19.7202 16.7451 19.7965 16.4781 19.7965C15.4482 19.7965 14.4183 19.7965 13.3884 19.7965C13.2359 19.7965 13.274 19.7584 13.274 19.9491C13.274 22.7336 13.274 25.5562 13.274 28.3407C13.274 28.4933 13.3121 28.4933 13.1214 28.4933C12.0534 28.4933 10.9854 28.4933 9.91736 28.4933C9.76478 28.4933 9.76478 28.5314 9.76478 28.3407C9.76478 25.5562 9.76478 22.7717 9.76478 19.9872C9.76478 19.8347 9.76478 19.7202 9.76478 19.5677C9.76478 19.5295 9.76478 19.4914 9.72664 19.4532C9.57406 19.3007 9.42149 19.1481 9.26891 18.9955C9.23077 18.9574 9.19263 18.8811 9.19263 18.8429C9.19263 18.1945 9.19263 17.5461 9.19263 16.8976C9.19263 16.8213 9.19263 16.7832 9.26891 16.745C9.42149 16.5925 9.57406 16.4399 9.68849 16.3255C9.76478 16.2873 9.76478 16.211 9.76478 16.1347C9.76478 13.8843 9.76478 11.6719 9.76478 9.42145C9.76478 8.54415 9.76478 7.66684 9.76478 6.78954C9.76478 6.75139 9.76478 6.75139 9.76478 6.71325C9.76478 6.63696 9.80293 6.63696 9.84107 6.63696H9.87921C12.0915 6.63696 14.3039 6.63696 16.5162 6.63696C17.1647 6.63696 17.6987 6.90397 18.0801 7.43798C18.309 7.74313 18.4234 8.12457 18.4234 8.506C18.3853 10.0699 18.3853 11.6338 18.3853 13.1977ZM14.9142 13.1977C14.9142 12.1297 14.9142 11.0235 14.9142 9.95546C14.9142 9.80289 14.9142 9.84103 14.7997 9.84103C14.342 9.84103 13.8843 9.84103 13.4266 9.84103C13.274 9.84103 13.274 9.84103 13.274 9.99361C13.274 12.1297 13.274 14.3038 13.274 16.4399C13.274 16.478 13.274 16.478 13.274 16.5162C13.274 16.5925 13.274 16.5925 13.3503 16.5925C13.8462 16.5925 14.342 16.5925 14.8379 16.5925C14.9142 16.5925 14.9142 16.5925 14.9142 16.5162C14.9142 16.478 14.9142 16.478 14.9142 16.4399C14.9142 15.3337 14.9142 14.2657 14.9142 13.1977Z" fill="white"/>
</svg>
