<svg width="60" height="57" viewBox="0 0 60 57" fill="none" xmlns="http://www.w3.org/2000/svg">
<path d="M39.2431 45.1937C39.6045 44.9353 39.9479 44.6589 40.1768 44.2623C40.2611 44.1782 40.3514 44.1061 40.4177 44.0159C41.5019 42.5918 41.8633 40.9574 41.8573 39.1967C41.8393 33.0916 41.8513 26.9865 41.8513 20.8814C41.8513 20.647 41.8272 20.4187 41.8152 20.1843C41.7489 20.1543 41.6887 20.1242 41.6345 20.0822C41.5321 20.0101 41.4598 19.926 41.4116 19.8298C41.4598 19.926 41.5321 20.0101 41.6345 20.0822C41.6887 20.1182 41.7429 20.1543 41.8152 20.1843C41.8272 19.7277 41.6405 19.3491 41.3513 19.0126C40.8875 18.2254 40.225 17.6305 39.46 17.1498C37.9119 16.1703 36.1952 15.7798 34.3882 15.8218C32.3342 15.8699 30.2019 15.5454 28.2984 16.9335C28.2984 16.627 28.2984 16.3987 28.2984 16.1703C28.2984 14.1273 28.2984 12.0782 28.2984 10.0352C28.2984 8.76127 28.6237 8.43078 29.9007 8.38872C30.2741 8.3767 30.6476 8.42477 31.003 8.52692C31.515 8.67715 31.8162 8.98361 31.8041 9.5845C31.768 10.8524 31.7981 12.1143 31.786 13.3822C31.78 13.7067 31.8463 13.8749 32.2378 13.8689C35.3038 13.8569 38.3697 13.8569 41.4357 13.8689C41.767 13.8689 41.8754 13.7667 41.8694 13.4423C41.8453 11.6095 41.9477 9.77078 41.8091 7.95006C41.5682 4.81338 40.0563 2.49391 37.0988 1.20198C34.9243 0.252564 32.6233 0.012205 30.2922 0.000187027C28.6237 -0.00582195 26.9733 0.132385 25.3228 0.498932C23.4013 0.925569 21.6846 1.62862 20.3053 3.02871C18.7994 4.55499 18.2271 6.47786 18.1729 8.55697C18.1187 10.7382 18.1549 12.9195 18.1549 15.1007C18.1549 23.2609 18.1488 31.4271 18.1609 39.5873C18.1609 41.1256 18.438 42.6038 19.3415 43.9078C19.3716 43.9498 19.4017 43.9979 19.4318 44.04C19.4318 44.04 19.4318 44.04 19.4258 44.046C19.5041 44.2323 19.6065 44.4005 19.7872 44.5147C20.5522 45.416 21.4377 46.1671 22.546 46.6238C26.1601 48.1141 29.9067 48.1982 33.7015 47.6033C35.7375 47.2848 37.6409 46.5697 39.2431 45.1937ZM41.3212 19.4512C41.3212 19.5053 41.3273 19.5594 41.3393 19.6135C41.3273 19.5594 41.3212 19.5053 41.3212 19.4512ZM32.2137 30.1352C32.021 30.3215 32.0812 30.5678 32.0752 30.7902C32.0691 31.7937 32.0691 32.7972 32.0631 33.8007C31.9306 33.987 31.7619 34.0711 31.521 34.0831C31.0512 34.1071 30.6054 34.2393 30.1717 34.4136C29.4007 34.7321 29.1718 35.0746 29.1718 35.9158C29.1718 38.0009 29.1538 40.0801 29.1839 42.1652C29.1899 42.6279 29.0213 42.8742 28.5996 42.9283C27.9852 43.0064 27.407 43.2348 26.7685 43.2288C26.1902 43.2227 25.9854 42.742 25.5939 42.5077C25.4915 42.4476 25.5818 42.2793 25.6481 42.1892C25.9011 41.8287 25.883 41.4201 25.883 41.0114C25.877 36.5167 25.883 32.022 25.883 27.5273C25.883 27.2629 25.9011 27.0105 25.6842 26.7702C25.5096 26.5719 25.63 26.3976 25.7866 26.1212C26.5697 24.7872 27.8406 25.3761 28.9068 25.1958C29.1056 25.1598 29.1477 25.34 29.2261 25.4722C29.6357 26.1693 30.0272 26.3435 30.8283 26.1753C32.033 25.9169 33.1413 25.3641 34.3039 24.9855C34.6171 24.8834 34.9423 24.7992 35.2676 24.7572C36.2434 24.631 36.5868 24.8533 36.9361 25.7907C37.0686 26.7341 36.9723 27.6835 37.0084 28.633C37.0144 28.8313 36.9361 28.9695 36.7675 29.0536C36.0928 29.1678 35.4242 29.2939 34.7556 29.4622C34.1352 29.6184 33.4606 29.6365 32.8161 29.7566C32.5631 29.8107 32.3101 29.8468 32.2137 30.1352Z" fill="white"/>
<path d="M45.7846 49.2859C45.11 48.8713 44.3751 48.5949 43.6161 48.3785C42.544 48.0781 41.4597 48.03 40.3755 48.2163C39.0925 48.4326 37.8878 48.9254 36.659 49.34C35.7193 49.6584 34.7978 50.043 33.9123 50.4877C33.7316 50.5778 33.4786 50.6319 33.6653 50.9444C33.828 51.2268 34.0147 51.1006 34.2074 51.0045C34.4183 50.9023 34.6231 50.7881 34.8339 50.692C36.4723 49.9108 38.0926 49.3219 39.9539 50.1211C41.3031 50.698 42.7849 50.5838 44.2305 50.4336C44.9714 50.3615 45.6702 50.1332 46.393 49.8447C46.2243 49.5443 46.0015 49.4121 45.7846 49.2859Z" fill="white"/>
<path d="M50.2903 46.1489C48.6037 45.4158 46.887 45.2776 45.0558 45.6141C43.9837 45.8124 42.9958 46.1309 42.02 46.5635C41.8634 46.6357 41.6224 46.6837 41.6224 46.858C41.6164 47.0443 41.8272 47.1705 41.9959 47.2606C42.9838 47.8194 44.068 48.0357 45.1884 48.0778C47.2424 48.1499 49.1458 47.519 51.0613 46.7859C50.7661 46.4013 50.6878 46.3172 50.2903 46.1489Z" fill="white"/>
<path d="M15.6431 48.0062C16.4984 47.9101 17.3116 47.6577 18.0465 47.2191C18.173 47.141 18.6849 46.9667 18.2211 46.7143C16.9743 46.0173 15.631 45.5786 14.1974 45.4705C13.306 45.3983 12.4024 45.4164 11.517 45.5606C10.5833 45.7168 9.70994 46.0413 8.90881 46.7444C11.1315 47.6818 13.306 48.2586 15.6431 48.0062Z" fill="white"/>
<path d="M23.6543 50.0546C24.4072 50.3791 25.1662 50.6735 25.895 51.0401C26.1058 51.1482 26.2564 51.1302 26.3649 50.8959C26.4733 50.6675 26.3408 50.5894 26.1601 50.5113C25.8589 50.3791 25.5637 50.2289 25.2626 50.0967C24.1181 49.5859 22.8833 49.3095 21.7328 48.8288C19.1367 47.7411 16.661 47.8974 14.2396 49.2674C14.0107 49.3936 13.7396 49.5078 13.6553 49.8202C13.6794 49.8443 13.7095 49.8743 13.7396 49.8924C13.848 49.9344 13.9564 49.9765 14.0649 50.0125C16.2695 50.7516 18.4801 50.7096 20.6606 49.9645C21.7087 49.6099 22.6544 49.628 23.6543 50.0546Z" fill="white"/>
<path d="M13.4925 44.9112C13.625 44.4966 13.1371 44.0579 12.7516 43.7575C11.2578 42.5677 9.53508 41.8526 7.67984 41.444C6.68596 41.2277 5.70413 41.408 4.66809 41.4681C4.80061 41.9728 5.08371 42.2672 5.40898 42.5136C7.45095 44.0579 9.7459 44.9352 12.3119 45.0614C12.7215 45.0794 13.366 45.2958 13.4925 44.9112Z" fill="white"/>
<path d="M54.7173 41.4262C54.4523 41.3782 54.1752 41.3782 53.9042 41.3541C51.7297 41.264 49.8443 42.1052 48.0433 43.1929C47.5433 43.4933 47.0795 43.8539 46.7061 44.3105C46.5615 44.4908 46.3386 44.7011 46.429 44.9174C46.5254 45.1578 46.8326 45.0797 47.0615 45.0857C49.2239 45.1518 51.1996 44.4908 53.085 43.5234C53.7897 43.1628 54.4884 42.7602 54.9884 42.1173C55.1149 41.955 55.3438 41.7928 55.2775 41.5765C55.1932 41.3061 54.9101 41.4563 54.7173 41.4262Z" fill="white"/>
<path d="M7.30636 39.9779C8.41469 40.8913 9.62541 41.6304 11.0831 41.8467C11.2277 41.8708 11.4204 41.9429 11.5108 41.7806C11.583 41.6545 11.4325 41.5403 11.3722 41.4261C10.6976 40.2183 9.95068 39.0646 8.98089 38.0671C7.89666 36.9554 6.66787 36.0962 5.14995 35.9579C4.55362 35.9339 4.51146 35.97 4.67409 36.4807C5.14995 37.9409 6.15587 39.0285 7.30636 39.9779Z" fill="white"/>
<path d="M55.0367 36.0481C54.1995 36.0061 53.4586 36.2404 52.7659 36.661C50.8504 37.8268 49.6457 39.6114 48.5795 41.5103C48.3988 41.8287 48.5675 41.8828 48.9711 41.8468C49.0373 41.8348 49.2301 41.7987 49.4168 41.7506C50.9528 41.348 52.2057 40.4827 53.3321 39.4071C54.1995 38.5779 54.9404 37.6585 55.3259 36.4988C55.4343 36.1923 55.4403 36.0722 55.0367 36.0481Z" fill="white"/>
<path d="M11.2458 36.5046C11.2458 36.9553 11.1675 37.3579 11.2579 37.7124C11.6554 39.2267 11.9867 40.771 12.7638 42.1591C13.3059 43.1325 13.9022 44.0639 14.9202 44.6287C15.0708 44.7129 15.2454 44.8451 15.4021 44.7549C15.5707 44.6528 15.4804 44.4365 15.4804 44.2682C15.4442 41.9127 14.5588 39.8756 13.0529 38.103C12.5469 37.5141 12.0289 36.9192 11.2458 36.5046Z" fill="white"/>
<path d="M44.628 44.7188C45.0436 44.881 45.4953 44.4183 45.8507 44.0818C46.7783 43.2045 47.3506 42.1049 47.8023 40.9392C48.3445 39.5391 48.7179 38.1029 48.7781 36.4685C48.5613 36.6127 48.4589 36.6608 48.3746 36.7329C46.2362 38.5115 44.8689 40.7168 44.5918 43.523C44.5497 43.9376 44.3268 44.5986 44.628 44.7188Z" fill="white"/>
<path d="M47.2184 7.09084C47.9954 8.52699 49.0495 9.69273 50.5012 10.4739C50.6698 10.564 50.9529 10.7984 50.9409 10.3537C50.6939 8.76134 50.1699 7.30717 49.3507 5.96717C48.7483 4.97569 48.0315 4.08636 47.0256 3.47344C46.8509 3.36528 46.6401 3.14896 46.4594 3.26313C46.2667 3.38932 46.3209 3.68376 46.3389 3.91811C46.4172 5.02977 46.6823 6.09936 47.2184 7.09084Z" fill="white"/>
<path d="M9.12547 10.5581C9.30016 10.6782 9.46279 10.51 9.60133 10.4259C12.083 8.94765 13.4142 6.75437 13.6853 3.84603C13.6371 3.6958 13.7696 3.41338 13.5829 3.2932C13.36 3.14898 13.1552 3.38934 12.9624 3.4915C12.8058 3.56961 12.6673 3.68378 12.5348 3.79194C10.5289 5.42038 9.68566 7.69778 9.0291 10.0713C8.98091 10.2336 8.96886 10.4499 9.12547 10.5581Z" fill="white"/>
<path d="M10.3423 38.1333C10.5652 38.0913 10.4748 37.8509 10.5411 37.7127C10.6796 37.4303 10.7097 37.1298 10.7519 36.8294C11.1013 34.3777 10.6013 32.0823 9.4207 29.9191C9.3424 29.7688 9.27614 29.5525 9.08339 29.5525C8.84847 29.5525 8.8063 29.7869 8.73402 29.9611C8.37261 30.8024 8.3425 31.6917 8.31238 32.581C8.3425 34.4919 8.728 36.2886 9.98089 37.8089C10.0773 37.935 10.1315 38.1694 10.3423 38.1333Z" fill="white"/>
<path d="M58.4218 30.7782C56.2232 31.307 54.362 32.3345 53.1693 34.3415C52.9766 34.666 52.4284 35.0386 52.6332 35.2729C52.8922 35.5734 53.4765 35.3931 53.9042 35.2729C56.4822 34.5518 58.5122 33.0796 60 30.7361C59.4157 30.6761 58.9157 30.658 58.4218 30.7782Z" fill="white"/>
<path d="M50.9347 29.5587C50.754 29.5647 50.6998 29.745 50.6215 29.8712C49.995 30.8927 49.6035 32.0164 49.3806 33.1821C49.0915 34.7024 48.9891 36.2287 49.489 37.7369C49.5372 37.8751 49.5312 38.0914 49.7059 38.1215C49.8745 38.1515 49.9408 37.9532 50.0372 37.8331C51.2539 36.3188 51.6936 34.5642 51.6876 32.3228C51.7298 31.7219 51.6153 30.7965 51.272 29.9132C51.2057 29.757 51.1575 29.5527 50.9347 29.5587Z" fill="white"/>
<path d="M54.9645 31.7455C57.5245 30.6519 59.5002 26.2353 59.452 23.9699C57.139 24.8832 54.9886 28.1822 54.9645 31.7455Z" fill="white"/>
<path d="M7.138 24.6731C6.9332 24.6671 6.86695 24.8714 6.76455 25.0096C6.71636 25.0697 6.68022 25.1418 6.6501 25.2139C5.60201 27.7978 5.43938 30.3696 6.76455 32.9174C6.84285 33.0617 6.86695 33.284 7.08982 33.278C7.31268 33.272 7.33678 33.0557 7.40906 32.9054C8.07767 31.5594 8.16802 30.1113 8.14995 28.6451C8.10176 27.4072 7.90299 26.2054 7.43918 25.0577C7.37894 24.9075 7.35485 24.6852 7.138 24.6731Z" fill="white"/>
<path d="M7.31855 34.9846C6.53549 33.9691 5.90905 32.8274 4.75856 32.1243C3.31895 31.247 1.84319 30.568 0 30.7182C1.02399 32.3046 2.24074 33.5184 3.82492 34.3476C4.86096 34.8884 5.90303 35.4052 7.11977 35.3752C7.46311 35.3691 7.54744 35.285 7.31855 34.9846Z" fill="white"/>
<path d="M3.83702 27.1909C3.10215 25.929 2.18658 24.8234 0.891531 24.0783C0.777085 24.0122 0.638545 23.898 0.518075 23.9881C0.451816 24.0362 0.445793 24.2045 0.463863 24.3126C0.813226 26.4218 1.62037 28.3386 2.95157 30.0272C3.50573 30.7302 4.09603 31.4032 5.04172 31.7638C5.05979 31.229 4.81283 30.8023 4.82487 30.3877C4.85499 29.1859 4.40925 28.1704 3.83702 27.1909Z" fill="white"/>
<path d="M52.8681 24.7692C52.6331 24.7752 52.5789 24.9916 52.5127 25.1718C51.7597 27.3591 51.6091 29.5764 52.1814 31.8298C52.3199 32.3706 52.5247 32.8994 52.8982 33.3981C54.7775 30.9825 54.2655 26.9865 53.2716 25.0516C53.1873 24.8894 53.0488 24.7692 52.8681 24.7692Z" fill="white"/>
<path d="M54.7898 26.2894C54.7416 26.5057 54.838 26.5838 55.0428 26.5297C55.2115 26.4817 55.3861 26.4396 55.5367 26.3615C56.5125 25.8567 57.2414 25.0756 57.8738 24.1983C58.7472 22.9845 59.3918 21.6685 59.7411 20.2203C59.8014 19.9559 59.7231 19.8478 59.4399 19.9079C59.1147 19.974 58.7954 20.0581 58.5063 20.2323C56.1873 21.5904 55.3139 23.8317 54.7898 26.2894Z" fill="white"/>
<path d="M54.8679 17.5942C55.1571 17.4319 55.2655 17.1495 55.404 16.9031C56.7533 14.4875 56.5184 11.9818 55.7956 9.45202C55.7474 9.27175 55.6992 9.00736 55.4944 8.99534C55.2956 8.98332 55.2294 9.24171 55.139 9.40395C54.1692 11.0925 54.0728 12.9372 54.1271 14.818C54.1572 15.7975 54.2957 16.7469 54.8679 17.5942Z" fill="white"/>
<path d="M5.12592 17.5345C5.4271 17.4864 5.43914 17.0778 5.51745 16.8074C6.14389 14.6682 5.96921 12.541 5.37289 10.4319C5.21628 9.87906 4.92112 9.3743 4.47539 8.89359C3.93327 9.95117 3.77064 11.0328 3.68028 12.1324C3.54777 13.827 3.70438 15.4734 4.64404 16.9516C4.78258 17.1679 4.8368 17.5826 5.12592 17.5345Z" fill="white"/>
<path d="M3.01791 25.2559C3.53593 25.8087 4.12021 26.2955 4.88519 26.5178C5.18637 26.6079 5.28877 26.5118 5.22251 26.2173C4.78279 24.2224 4.066 22.3656 2.53001 20.9294C1.98187 20.4187 1.35542 20.0341 0.735004 19.938C0.307336 19.9199 0.162772 19.974 0.265171 20.3286C0.789215 22.1913 1.69274 23.8438 3.01791 25.2559Z" fill="white"/>
<path d="M11.7881 11.4775C8.64988 11.6879 6.41517 15.0949 6.02966 17.5526C8.43906 16.8916 11.5592 13.6167 11.7881 11.4775Z" fill="white"/>
<path d="M48.8264 11.5012C48.6457 11.4471 48.4288 11.3089 48.2843 11.4711C48.1397 11.6214 48.2602 11.8377 48.3204 12.018C48.7541 13.3459 49.6095 14.4035 50.5792 15.365C51.543 16.3204 52.5971 17.1797 54.0247 17.5703C54.0187 17.408 54.0307 17.3239 54.0066 17.2578C53.5067 15.8216 52.9404 14.4456 51.8201 13.3339C50.9527 12.4686 49.9829 11.8497 48.8264 11.5012Z" fill="white"/>
<path d="M8.42696 17.5524C8.29445 17.6305 8.15591 17.7086 8.04748 17.8167C6.40307 19.3851 5.49954 21.302 5.3851 23.5733C5.3851 23.6695 5.37305 23.7716 5.3851 23.8678C5.43931 24.1983 5.23451 24.703 5.57183 24.8232C5.90914 24.9434 6.22839 24.5348 6.4633 24.2644C8.05953 22.4316 8.83054 20.2744 8.92089 17.8588C8.92691 17.4682 8.77632 17.3541 8.42696 17.5524Z" fill="white"/>
<path d="M54.4465 24.8231C54.7959 24.7089 54.567 24.1681 54.6273 23.8196C54.6333 23.8016 54.6273 23.7836 54.6273 23.7595C54.6393 22.4736 54.308 21.1877 53.6334 19.9799C53.1394 19.0906 52.5672 18.2613 51.742 17.6424C51.5914 17.5282 51.4167 17.378 51.2179 17.4801C51.0252 17.5763 51.0915 17.7926 51.0975 17.9549C51.1698 20.3044 52.0191 22.3775 53.4587 24.2102C53.6876 24.4986 54.0671 24.9493 54.4465 24.8231Z" fill="white"/>
<path d="M51.76 11.8736C51.9467 12.4024 52.2117 12.9312 52.7237 13.2677C53.1454 13.5381 53.302 13.484 53.3562 12.9913C53.5007 11.7655 53.4827 10.5396 53.2357 9.33183C53.0249 8.29227 52.6755 7.3068 52.019 6.45353C51.8744 6.26124 51.7178 5.94877 51.4648 6.00886C51.254 6.05693 51.26 6.39945 51.1937 6.61577C51.0311 7.15057 51.0974 7.69739 51.0974 8.41245C50.9408 9.51811 51.3383 10.7019 51.76 11.8736Z" fill="white"/>
<path d="M6.82467 13.4601C7.22222 13.5503 7.46316 13.0275 7.77036 12.7751C7.81252 12.739 7.82457 12.6729 7.84866 12.6189C8.51727 11.2729 9.03529 9.8968 8.87868 8.18424C8.87868 7.86576 8.92084 7.37904 8.86663 6.89832C8.83049 6.59186 8.84856 6.09912 8.53534 6.03303C8.192 5.96693 7.99323 6.40558 7.81252 6.69401C6.68613 8.48469 6.44519 10.4676 6.61385 12.5227C6.63794 12.8532 6.48735 13.382 6.82467 13.4601Z" fill="white"/>
<path d="M55.1633 20.9053C55.1934 21.0856 55.0428 21.344 55.2536 21.4341C55.4644 21.5242 55.6452 21.3199 55.8078 21.1877C56.4282 20.6649 56.8619 19.9979 57.3016 19.331C58.1871 17.997 58.1991 16.4647 58.3858 14.9684C58.4099 14.7581 58.5003 14.4817 58.2834 14.3856C58.1208 14.3074 57.9401 14.5298 57.7955 14.656C55.9945 16.2363 55.35 18.3275 55.1573 20.6169C55.1633 20.713 55.1512 20.8092 55.1633 20.9053Z" fill="white"/>
<path d="M1.84906 16.9515C2.10205 18.7061 3.0116 20.1002 4.31267 21.2599C4.43314 21.3681 4.6018 21.5243 4.77648 21.4342C4.95719 21.3381 4.89695 21.1097 4.85479 20.9535C4.78853 20.7191 4.82467 20.4908 4.8066 20.2865C4.86081 19.6796 4.7042 19.1328 4.54759 18.592C4.10185 17.0236 3.41517 15.5875 2.09 14.5479C1.9876 14.4698 1.8852 14.3256 1.74064 14.3857C1.56596 14.4638 1.60812 14.6561 1.62017 14.8003C1.6804 15.5214 1.74666 16.2364 1.84906 16.9515Z" fill="white"/>
<path d="M22.9435 52.8794C22.5279 52.7472 22.6544 52.2064 22.4556 51.8879C22.3291 51.6836 22.1665 51.7076 22.1484 51.9239C22.0822 52.9154 21.4256 53.0056 20.6546 52.9575C20.6124 52.9575 20.5703 53.0056 20.4197 53.1017C21.5461 53.5223 21.6063 54.2915 21.1606 55.283C21.9436 54.4778 22.6604 54.3756 23.4013 55.325C23.3893 55.0546 24.0157 53.0717 24.1362 52.9034C23.7085 52.8974 23.2929 52.9875 22.9435 52.8794Z" fill="white"/>
<path d="M38.5264 52.9271C37.7975 53.0052 37.1651 52.9511 37.0627 52.0137C37.0506 51.9175 36.9181 51.8334 36.7254 51.6171C36.7254 52.8549 36.0748 53.1193 35.0267 52.9932C36.123 53.5099 36.1893 54.2911 35.7435 55.2946C36.5507 54.3812 37.2855 54.4714 38.0927 55.2826C37.5566 54.2671 37.6951 53.5159 38.8276 53.0412C38.6228 52.9571 38.5685 52.921 38.5264 52.9271Z" fill="white"/>
<path d="M26.9793 52.7888C26.7624 53.2395 26.7022 53.7262 26.4312 53.9906C26.148 54.273 25.612 54.0147 24.9976 54.225C26.1962 54.6877 26.2866 55.4448 25.8168 56.4483C26.6299 55.589 27.3588 55.5469 28.0635 56.4964C28.1659 55.9315 27.7684 55.5289 27.8346 55.1143C27.9069 54.6696 28.5454 54.5855 28.8345 54.0267C27.672 54.3451 27.1419 53.8284 26.9793 52.7888Z" fill="white"/>
<path d="M32.4306 53.2335C32.4245 53.1133 32.3161 53.0952 32.2137 53.1013C32.0752 53.1133 31.9908 53.1734 31.9788 53.3116C31.9246 54.0927 31.3945 54.1468 30.7922 54.1048C30.6898 54.0987 30.5573 54.0567 30.4789 54.1889C30.4609 54.3331 30.5753 54.3992 30.6717 54.4533C31.2259 54.7778 31.6053 55.1503 31.1717 55.8293C31.1235 55.9074 31.1054 56.0817 31.2138 56.1478C31.3644 56.2379 31.5331 56.1779 31.6355 56.0577C32.0932 55.5349 32.5028 55.7572 32.9245 56.1178C33.045 56.2199 33.1594 56.3761 33.3883 56.3401C33.3642 56.2199 33.3582 56.1057 33.322 55.9976C33.0148 55.0722 33.0148 55.0722 33.7497 54.4653C33.8461 54.3812 33.9846 54.3211 34.0147 54.1228C33.9425 54.1048 33.9063 54.0927 33.8702 54.0927C33.2076 54.0987 32.4968 54.2069 32.4306 53.2335Z" fill="white"/>
<path d="M30.8825 30.2069C31.1355 30.5133 31.5511 30.6696 31.5933 31.1503C31.2741 31.1923 31.0391 31.0181 30.7741 30.964C30.1176 30.8438 29.3044 31.2584 29.3044 31.7692C29.2984 33.8844 29.0213 33.6861 31.1174 33.6921C31.1958 33.6921 31.2741 33.6861 31.3524 33.674C31.6355 33.626 31.8162 33.4757 31.8162 33.1693C31.8162 32.3881 31.8403 31.613 31.8041 30.8318C31.78 30.3511 31.4427 30.1348 30.8825 30.2069Z" fill="white"/>
</svg>
