<?xml version="1.0" standalone="no" ?>
<!DOCTYPE svg PUBLIC "-//W3C//DTD SVG 20010904//EN"
  "http://www.w3.org/TR/2001/REC-SVG-20010904/DTD/svg10.dtd">
<svg
  version="1.0"
  xmlns="http://www.w3.org/2000/svg"
  width="512.000000pt"
  height="512.000000pt"
  viewBox="0 0 512.000000 512.000000"
  preserveAspectRatio="xMidYMid meet"
>

<g
    transform="translate(0.000000,512.000000) scale(0.100000,-0.100000)"
    fill="#7C8FA0"
    stroke="none"
  >
<path
      d="M4073 4925 c-116 -31 -213 -101 -275 -197 -17 -26 -32 -48 -33 -48
-1 0 -110 30 -241 66 -209 58 -253 67 -351 71 -82 4 -130 1 -185 -11 -202 -45
-382 -186 -472 -370 -64 -131 -68 -160 -73 -483 l-5 -291 -81 -6 c-424 -34
-781 -119 -1093 -261 -42 -19 -81 -35 -86 -35 -5 0 -31 18 -59 40 -200 158
-509 185 -737 65 -172 -90 -289 -227 -349 -410 -23 -68 -27 -98 -27 -205 -1
-105 3 -137 22 -200 30 -94 58 -149 117 -229 l47 -63 -26 -92 c-36 -129 -47
-213 -47 -356 1 -350 136 -668 408 -959 640 -687 1870 -961 2935 -655 298 85
599 227 823 388 584 418 830 1012 661 1596 l-24 84 40 45 c21 25 59 86 83 136
100 203 99 407 -2 615 -85 177 -257 316 -453 367 -88 23 -254 22 -339 -1 -92
-25 -176 -66 -250 -120 l-63 -48 -118 50 c-339 145 -631 213 -1069 248 l-83 6
4 277 c4 251 7 281 26 335 75 203 259 327 468 314 62 -4 527 -121 546 -137 4
-4 12 -31 18 -61 48 -253 300 -422 552 -369 165 35 311 173 353 334 30 117 13
249 -45 350 -35 62 -130 154 -188 184 -97 49 -226 63 -329 36z m184 -230 c90
-27 163 -125 163 -220 0 -132 -136 -251 -264 -229 -120 19 -199 111 -199 229
0 107 65 193 173 226 39 12 72 10 127 -6z m-1317 -1290 c946 -118 1667 -629
1806 -1279 59 -279 -5 -577 -181 -841 -62 -94 -212 -256 -312 -338 -230 -187
-541 -342 -872 -433 -276 -76 -520 -107 -831 -107 -470 1 -882 91 -1265 277
-615 299 -954 763 -932 1276 17 398 247 758 662 1035 356 238 801 383 1305
425 143 12 468 4 620 -15z m-2127 -110 c32 -8 77 -25 100 -36 l42 -22 -25 -18
c-258 -185 -449 -365 -558 -526 -35 -51 -65 -93 -68 -93 -13 0 -54 112 -65
176 -39 226 113 457 340 520 64 17 166 17 234 -1z m3722 0 c133 -35 238 -122
302 -251 38 -77 38 -79 38 -193 0 -96 -4 -125 -23 -171 -31 -78 -40 -89 -52
-70 -36 62 -143 200 -215 277 -89 96 -239 222 -357 301 l-69 46 38 20 c106 55
227 69 338 41z"
    />
<path
      d="M1513 2715 c-233 -63 -385 -295 -344 -524 66 -370 521 -520 780 -258
67 68 96 114 121 196 37 118 19 272 -43 375 -106 173 -323 262 -514 211z m184
-230 c54 -16 111 -64 140 -118 12 -22 17 -55 17 -102 0 -80 -14 -115 -71 -170
-88 -86 -238 -80 -325 12 -100 105 -70 294 57 360 67 36 109 40 182 18z"
    />
<path
      d="M3371 2714 c-228 -61 -377 -287 -341 -518 42 -271 311 -449 575 -381
132 35 238 123 302 253 38 75 38 77 38 197 0 120 0 122 -38 197 -101 206 -322
310 -536 252z m183 -228 c142 -43 206 -196 138 -327 -83 -158 -292 -169 -396
-21 -25 35 -31 55 -34 110 -7 123 58 215 173 243 47 11 68 10 119 -5z"
    />
<path
      d="M1549 1283 l-82 -78 78 -72 c382 -356 996 -476 1521 -298 185 63 373
174 518 307 l68 63 -86 78 -86 79 -63 -57 c-229 -208 -520 -315 -856 -315
-229 0 -431 47 -614 142 -90 47 -213 136 -266 192 -19 20 -38 36 -42 36 -4 0
-44 -35 -90 -77z"
    />
</g>
</svg>
