<svg width="31" height="29" viewBox="0 0 31 29" fill="none" xmlns="http://www.w3.org/2000/svg">
<path d="M31 5.96598C30.9636 9.65743 30.0318 12.9536 28.4812 16.1087C27.3601 18.3885 26.0061 20.5271 24.3172 22.4611C22.4536 24.5926 20.2405 26.2866 17.6125 27.4583C17.5688 27.4795 17.5252 27.5006 17.4815 27.5148C17.0738 27.6912 16.6661 28.0088 16.2657 28.0018C15.8581 28.0018 15.4577 27.6771 15.05 27.4936C11.1408 25.7714 8.26526 22.9481 6.00853 19.4754C4.33418 16.8992 3.01654 14.1747 2.25216 11.2102C1.88817 9.77742 1.64066 8.33048 1.61154 6.84825C1.61154 6.70709 1.56058 6.55181 1.48778 6.4177C0.119184 3.75675 1.74986 0.587604 4.77097 0.072353C6.00125 -0.139394 7.15146 0.114702 8.17063 0.820526C8.42542 0.996981 8.64381 1.04639 8.96412 0.982865C11.4029 0.509963 13.8707 0.269984 16.3604 0.340566C18.0275 0.389973 19.7018 0.446439 21.3543 0.629953C24.5793 0.996981 27.6659 1.81574 30.4249 3.58029C30.7962 3.82027 30.9272 4.09554 30.9272 4.49786C30.9345 5.04841 30.9855 5.59895 31 5.96598ZM19.4325 11.1891C19.4907 11.0903 19.5344 10.935 19.6217 10.9067C20.0585 10.7515 20.5099 10.6385 20.9467 10.4974C21.085 10.455 21.2087 10.3703 21.3325 10.3068C21.3179 10.2715 21.3034 10.2291 21.2888 10.1939C21.1286 10.208 20.9612 10.1868 20.8156 10.2362C20.6118 10.3068 20.4371 10.4338 20.2405 10.5256C19.993 10.6385 19.7236 10.7232 19.4834 10.8432C19.2941 10.935 19.2941 11.0338 19.4325 11.1891C19.3233 11.3302 19.1995 11.4785 19.0321 11.6973C19.447 11.8243 19.8328 11.9796 20.2332 12.0361C20.4516 12.0643 20.6919 11.909 20.9248 11.8314C20.9248 11.8031 20.9248 11.7749 20.9248 11.7537C20.4225 11.5632 19.9275 11.3726 19.4325 11.1891ZM13.6159 7.4482C13.3538 7.54702 13.0918 7.65289 12.8297 7.75171C13.7615 8.46459 14.9772 8.46459 15.647 7.71642C15.0937 7.58231 14.5623 7.45526 14.0381 7.32821C14.1983 7.27881 14.3657 7.17999 14.5186 7.19411C15.727 7.30704 16.9573 7.32116 18.093 7.83641C18.1949 7.88581 18.3332 7.86464 18.4497 7.8717C18.457 7.83641 18.4642 7.80112 18.4642 7.77288C18.3842 7.73759 18.2677 7.71642 18.224 7.65289C18.1439 7.54702 18.1075 7.41997 18.0566 7.29292C18.1658 7.26469 18.2968 7.17293 18.3842 7.20822C18.7991 7.35645 19.1922 7.53996 19.5999 7.70936C19.5562 7.88581 19.5271 7.99875 19.5053 8.05521C19.7382 8.24578 19.9639 8.38695 20.1313 8.57752C20.4953 8.99396 20.8229 9.43863 21.1869 9.85506C21.347 10.0386 21.5727 10.1797 21.3252 10.455C21.8566 10.5397 22.3953 10.5327 22.7375 10.9914C22.2497 11.2596 21.7911 11.5208 21.2961 11.789C21.5873 11.9796 21.7765 11.8949 22.0168 11.7961C22.4244 11.6337 22.8831 11.4502 23.298 11.4926C24.8486 11.6479 26.1735 12.2902 27.1345 13.5042C27.4038 13.843 27.5713 14.2523 27.7824 14.6194C29.231 11.3514 29.879 8.37283 29.6824 4.84372C29.6751 4.68844 29.5441 4.48375 29.413 4.40611C28.6632 4.00379 27.9134 3.59441 27.1272 3.26973C24.39 2.18982 21.4999 1.76633 18.5734 1.61105C16.091 1.484 13.6159 1.54047 11.1481 1.88632C10.6021 1.96396 10.0561 2.05572 9.49555 2.14747C10.471 4.0179 10.2599 5.73305 8.97868 7.35645C9.18252 7.41291 9.36451 7.46938 9.53923 7.51879C9.73578 7.33527 9.9105 7.04588 10.1216 7.02471C10.3546 6.99648 10.6166 7.20822 10.8714 7.32116C10.9661 7.36351 11.0607 7.41997 11.1553 7.46938C11.4975 7.65289 11.8469 7.80817 12.2473 7.73053C12.7059 7.64583 13.1646 7.53996 13.6159 7.4482ZM21.2014 23.7739C23.298 21.9882 24.9214 19.913 26.2318 17.6121C26.7341 16.7368 26.2245 15.9957 25.1908 15.9604C24.8559 15.9463 24.5137 15.9181 24.1862 15.8546C23.3635 15.7063 22.6865 15.297 22.1405 14.6829C22.0969 14.7182 22.0605 14.7323 22.0386 14.7535C21.6601 15.1417 21.2306 15.4169 20.6555 15.2193C20.0221 15.0005 19.4543 14.697 19.4179 13.9206C19.4106 13.843 19.2941 13.7371 19.2068 13.6947C18.5807 13.4054 17.9474 13.1301 17.314 12.8478C17.1612 12.7772 16.9792 12.636 16.8554 12.6784C16.3094 12.8478 15.8654 12.6501 15.4431 12.3537C14.7588 13.5253 13.8416 14.1112 13.0481 13.8853C12.4948 13.73 12.0144 13.4336 11.6504 12.9819C11.2063 12.4313 11.3301 11.8172 11.4247 11.2244C10.9806 11.0197 10.5948 10.9561 10.1216 11.1679C9.48099 11.4502 8.89133 11.1608 8.41086 10.7162C7.97407 10.3138 7.77752 9.83389 7.90856 9.22688C7.97407 8.92337 7.894 8.59164 7.87216 8.18932C7.02042 8.67634 6.21236 8.84573 5.36791 8.82456C4.51617 8.80338 3.72268 8.52811 2.97286 8.06227C2.98742 8.25284 2.97286 8.40107 3.00198 8.53517C3.25677 9.69978 3.50428 10.8644 3.79548 12.0219C4.02843 12.9466 4.58169 13.6947 5.46255 14.1253C6.13229 14.45 6.85299 14.7182 7.58096 14.9017C8.96412 15.2546 10.3982 15.4381 11.7668 15.8475C14.606 16.7015 17.1539 18.092 19.2723 20.146C20.306 21.1341 21.165 22.2211 21.2014 23.7739ZM7.41353 16.751C7.25337 16.7721 7.07138 16.7862 6.88939 16.8215C6.31428 16.9415 6.14685 17.3015 6.44532 17.8026C6.72923 18.2755 7.03498 18.7414 7.34073 19.2002C9.51739 22.4399 12.3055 25.0161 16.0182 26.5619C16.1566 26.6184 16.3604 26.6537 16.4769 26.5901C17.6125 25.9972 18.7336 25.3832 19.8547 24.762C20.3715 24.4727 20.6919 23.9998 20.6336 23.428C20.5899 23.0045 20.4152 22.5599 20.1968 22.1858C19.7382 21.4023 19.0393 20.8024 18.2895 20.2871C15.0355 18.0638 11.3737 17.005 7.41353 16.751ZM8.81853 4.4414C8.83309 2.74742 7.44993 1.25814 5.55718 1.27225C3.72268 1.28637 2.3104 2.62037 2.29584 4.41316C2.274 6.29065 3.83187 7.58231 5.52806 7.58937C7.35529 7.59643 8.81853 6.19184 8.81853 4.4414ZM22.3444 14.2947C22.9704 14.697 23.6475 14.8099 24.3536 14.8452C25.1471 14.8876 25.9624 14.8099 26.6977 15.2405C26.5157 13.2501 23.4291 11.3443 22.0241 12.0713C22.7884 12.7066 22.8758 13.243 22.3444 14.2947ZM9.0806 9.88329C8.9714 10.2291 9.07332 10.5115 9.32083 10.6032C9.74306 10.7515 10.209 10.8079 10.6603 10.8785C10.7477 10.8926 10.9151 10.822 10.9442 10.7515C11.0753 10.455 11.3228 10.5891 11.5339 10.5538C11.694 10.5256 11.8906 10.4974 11.9998 10.3915C12.6768 9.74213 13.4412 9.6292 14.2929 9.98211C15.0864 10.3068 15.5669 10.8503 15.5232 11.7396C15.5232 11.8172 15.5669 11.9443 15.6178 11.9655C15.9163 12.0784 16.2294 12.1702 16.5642 12.269C16.4041 12.0643 16.2657 11.909 16.1493 11.7396C15.9018 11.3796 15.6979 10.9844 15.414 10.6597C15.1738 10.3844 14.8535 10.1727 14.555 9.94682C14.3803 9.81977 14.1109 9.7633 14.009 9.60096C13.6159 8.99396 12.9826 9.03631 12.3856 8.96572C12.7132 9.05748 13.0408 9.14924 13.3684 9.24099C13.3611 9.27629 13.3538 9.31158 13.3393 9.33981C12.8588 9.33981 12.3711 9.33981 11.8469 9.33981C12.0435 9.73507 11.876 9.96799 11.5994 10.1303C11.3446 10.2856 11.1335 10.1444 10.9806 10.0456C11.0389 9.7633 11.0898 9.53038 11.1335 9.32569C10.9806 9.4598 10.8205 9.60802 10.6603 9.75625C10.4274 9.45274 10.2526 9.21982 10.0415 8.93749C9.96873 9.32569 9.96873 9.32569 10.3182 9.85506C9.94689 10.7726 9.51011 10.0739 9.0806 9.88329ZM18.5953 9.40333C18.5152 9.17041 18.4133 8.95161 18.3696 8.71869C18.275 8.26696 18.0129 8.07639 17.5397 8.02698C16.7171 7.94228 15.9018 7.83641 15.2539 8.49988C15.1811 8.57752 15.0864 8.68339 15.0864 8.77515C15.0864 9.05042 15.6615 9.57273 15.9454 9.55861C16.8045 9.51627 17.6707 9.4598 18.5953 9.40333ZM9.46643 9.36099C9.52467 9.10689 9.56835 8.88808 9.61931 8.66222C9.46643 8.57046 9.29171 8.46459 9.09516 8.3446C9.43731 7.76582 10.0998 8.04815 10.5438 7.76582C10.1434 7.7023 9.73578 7.72347 9.34995 7.63878C9.06604 7.57525 8.93501 7.64583 8.84765 7.86464C8.76757 8.07639 8.68749 8.30931 8.67293 8.53517C8.64381 8.94455 8.66565 9.35393 8.66565 9.80565C8.80397 9.79859 8.91317 9.79154 9.0442 9.78448C9.0442 9.56567 9.0442 9.38216 9.0442 9.17747C9.21164 9.23394 9.33539 9.2904 9.46643 9.36099ZM19.3014 9.97505C19.3014 9.9327 19.3014 9.89035 19.3014 9.848C18.1658 9.79154 17.0374 9.73507 15.9018 9.67861C15.8945 9.7139 15.8872 9.75625 15.8872 9.79154C16.091 10.0668 16.3021 10.3491 16.5133 10.6315C17.3504 10.0103 18.3259 9.98917 19.3014 9.97505ZM20.0003 9.73507C19.5853 8.93749 19.0248 8.57752 18.6608 8.8175C18.7773 9.53744 19.4179 9.53038 20.0003 9.73507ZM19.2723 12.0925C19.0976 12.0219 18.9302 11.9514 18.7554 11.8808C18.6171 12.0008 18.4788 12.1137 18.3478 12.2337C18.2095 12.3537 18.0711 12.4807 17.9183 12.6148C18.6681 12.876 18.6899 12.8619 19.2723 12.0925ZM8.48366 9.50921C8.31622 8.94455 8.81125 8.41518 8.26526 7.9564C8.36718 7.73759 8.47638 7.49761 8.58558 7.26469C8.49094 7.27175 8.44726 7.3141 8.41086 7.35645C7.90856 7.97757 8.11967 8.67634 8.16335 9.36099C8.17063 9.39628 8.30894 9.43157 8.48366 9.50921ZM14.3002 13.0666C14.3366 13.0807 14.373 13.0948 14.4094 13.1089C14.606 12.8195 14.7952 12.5372 15.0209 12.1984C13.7542 12.1419 14.009 12.1349 14.2638 12.9395C14.2784 12.9819 14.2929 13.0242 14.3002 13.0666ZM15.0864 11.7961C14.9044 11.4996 14.7588 11.2526 14.5768 10.9561C14.3803 11.2879 14.2347 11.5137 14.0673 11.7961C14.4312 11.7961 14.7079 11.7961 15.0864 11.7961ZM14.0527 13.3065C13.8853 12.9395 13.7761 12.6854 13.6377 12.3819C13.4194 12.6572 13.2592 12.8689 13.0262 13.1654C13.3975 13.2148 13.6741 13.2571 14.0527 13.3065ZM11.3373 7.81523C11.3519 7.76582 11.3665 7.72347 11.381 7.67407C10.9806 7.51173 10.5802 7.34233 10.1726 7.20117C10.1216 7.17999 9.98329 7.27881 9.9469 7.34939C9.92506 7.3988 9.99057 7.55408 10.0415 7.56819C10.4638 7.65995 10.9005 7.73053 11.3373 7.81523ZM19.4543 13.2289C19.6363 12.9254 19.811 12.636 19.9857 12.3396C19.8911 12.3113 19.7892 12.276 19.6872 12.2407C19.447 12.5231 19.2141 12.7913 18.952 13.1018C19.1558 13.1513 19.3014 13.1936 19.4543 13.2289ZM13.7251 11.7184C13.9071 11.4361 14.0673 11.1961 14.2274 10.9561C14.2056 10.9279 14.1837 10.8926 14.1546 10.8644C13.8489 11.0126 13.5431 11.1608 13.1718 11.3373C13.3902 11.4926 13.5358 11.5914 13.7251 11.7184ZM12.8151 12.756C12.8588 12.756 12.9025 12.7631 12.9389 12.7631C13.5213 12.0784 13.5213 11.9937 12.9389 11.7325C12.8952 12.0855 12.8515 12.4243 12.8151 12.756ZM21.5582 13.8783C21.6237 14.1323 21.6746 14.3441 21.762 14.6688C21.9731 14.337 22.1333 14.09 22.3444 13.7653C22.0168 13.8077 21.8129 13.8359 21.5582 13.8783ZM13.9362 8.54223C13.9071 8.71163 13.8853 8.83162 13.8634 8.96572C14.3002 9.01513 14.7006 9.06454 15.101 9.10689C15.1083 9.08571 15.1155 9.06454 15.1301 9.04336C14.737 8.88103 14.3512 8.71869 13.9362 8.54223ZM16.3313 10.8362C15.9746 10.4762 15.6834 10.2009 15.232 10.1515C15.596 10.3491 15.6834 10.942 16.3313 10.8362ZM22.1551 12.8336C21.944 13.1018 21.7984 13.2783 21.6164 13.5112C21.9076 13.5112 22.1114 13.5112 22.3662 13.5112C22.308 13.2924 22.2497 13.116 22.1551 12.8336ZM21.3034 14.0124C21.1723 14.2665 21.0777 14.45 20.9467 14.7041C21.1796 14.7252 21.347 14.7394 21.58 14.7605C21.4708 14.4782 21.398 14.2806 21.3034 14.0124ZM21.9513 12.876C21.449 12.9395 21.2451 13.1795 21.4344 13.4477C21.5946 13.2712 21.7474 13.1018 21.9513 12.876Z" fill="white"/>
<path d="M13.6157 7.44816C13.1571 7.53991 12.7058 7.64579 12.2471 7.73049C11.8468 7.80813 11.49 7.65285 11.1552 7.46933C11.0605 7.41992 10.9659 7.36346 10.8713 7.32111C10.6237 7.20818 10.3544 6.99643 10.1214 7.02466C9.91033 7.0529 9.73561 7.34228 9.53906 7.51874C9.35706 7.46933 9.17507 7.41287 8.97852 7.3564C10.267 5.73301 10.4709 4.01786 9.49538 2.14743C10.0559 2.05567 10.6019 1.96391 11.1479 1.88627C13.6085 1.54042 16.0909 1.48395 18.5733 1.611C21.507 1.76628 24.3898 2.18272 27.1197 3.29086C27.906 3.60848 28.6558 4.02492 29.4056 4.42723C29.5439 4.49782 29.6677 4.70956 29.6749 4.86485C29.8788 8.39396 29.2309 11.3725 27.7749 14.6405C27.5638 14.2735 27.3891 13.8641 27.127 13.5253C26.1661 12.3042 24.8412 11.6619 23.2906 11.5137C22.8756 11.4713 22.417 11.6619 22.0093 11.8172C21.7691 11.909 21.5871 12.0007 21.2886 11.8101C21.7764 11.5349 22.2423 11.2808 22.73 11.0126C22.3879 10.5608 21.8565 10.5608 21.3178 10.4761C21.5653 10.2009 21.3396 10.0597 21.1794 9.87619C20.8154 9.45975 20.4879 9.00803 20.1239 8.59865C19.9564 8.40808 19.7308 8.26691 19.4978 8.07634C19.5124 8.01282 19.5415 7.90694 19.5924 7.73049C19.1921 7.56109 18.7917 7.37758 18.3767 7.22935C18.2894 7.20112 18.1583 7.28582 18.0491 7.31405C18.1001 7.43404 18.1365 7.56815 18.2166 7.67402C18.2602 7.73754 18.3767 7.75166 18.4568 7.79401C18.4495 7.8293 18.4422 7.86459 18.4422 7.89283C18.3185 7.88577 18.1874 7.90694 18.0855 7.85753C16.9499 7.34228 15.7196 7.32111 14.5112 7.21524C14.3583 7.20112 14.1908 7.29993 14.0307 7.34934C13.8997 7.37052 13.7613 7.41287 13.6157 7.44816Z" fill="#007AD2"/>
<path d="M21.2013 23.7738C21.1722 22.221 20.3059 21.1341 19.2867 20.1459C17.1683 18.092 14.6277 16.7015 11.7813 15.8475C10.42 15.4381 8.98585 15.2546 7.59541 14.9017C6.86743 14.7181 6.14673 14.4499 5.47699 14.1252C4.58886 13.6947 4.04287 12.9465 3.80992 12.0219C3.51873 10.8643 3.2785 9.69974 3.01642 8.53513C2.9873 8.40102 2.99458 8.2528 2.9873 8.06223C3.7444 8.52807 4.53062 8.79628 5.38235 8.82451C6.22681 8.84569 7.03487 8.67629 7.8866 8.18927C7.90844 8.59159 7.98852 8.92333 7.923 9.22683C7.79196 9.8409 7.98852 10.3209 8.4253 10.7161C8.90577 11.1537 9.49543 11.4502 10.1361 11.1678C10.6092 10.9561 10.9951 11.0196 11.4391 11.2243C11.3445 11.8172 11.2207 12.4313 11.6648 12.9818C12.0288 13.4335 12.502 13.7229 13.0625 13.8853C13.856 14.1111 14.7733 13.5253 15.4576 12.3536C15.8798 12.643 16.3239 12.8477 16.8699 12.6783C16.9936 12.643 17.1756 12.7842 17.3285 12.8477C17.9618 13.13 18.5952 13.4053 19.2212 13.6947C19.3086 13.737 19.4323 13.8429 19.4323 13.9206C19.4687 14.697 20.0366 15.0005 20.6699 15.2193C21.2377 15.4169 21.6745 15.1416 22.0531 14.7534C22.0749 14.7323 22.104 14.7111 22.155 14.6828C22.7082 15.2969 23.378 15.7063 24.2006 15.8545C24.5282 15.911 24.8703 15.9463 25.2052 15.9604C26.2462 15.9957 26.7485 16.7368 26.2462 17.612C24.9213 19.913 23.2906 21.9811 21.2013 23.7738Z" fill="#007AD2"/>
<path d="M7.41333 16.7509C11.3735 16.998 15.0353 18.0637 18.2893 20.3012C19.0391 20.8165 19.738 21.4164 20.1966 22.1999C20.415 22.574 20.5897 23.0186 20.6334 23.4421C20.6917 24.0138 20.3786 24.4867 19.8545 24.7761C18.7334 25.3972 17.6123 26.0043 16.4767 26.6042C16.3602 26.6677 16.1491 26.6324 16.018 26.576C12.3053 25.0302 9.52447 22.454 7.34053 19.2142C7.03478 18.7555 6.72903 18.2896 6.44512 17.8167C6.13937 17.3156 6.3068 16.9556 6.88919 16.8356C7.07118 16.7862 7.25317 16.7721 7.41333 16.7509Z" fill="#04538C"/>
<path d="M8.8184 4.44136C8.8184 6.1918 7.35516 7.59638 5.52066 7.58933C3.83175 7.58227 2.27387 6.29061 2.28843 4.41312C2.31027 2.62033 3.72255 1.28633 5.55706 1.27221C7.4498 1.25809 8.83296 2.74738 8.8184 4.44136Z" fill="#C2C2C2"/>
<path d="M22.3442 14.2946C22.8757 13.243 22.7956 12.6995 22.0239 12.0713C23.4289 11.3443 26.5156 13.25 26.6975 15.2404C25.9623 14.8028 25.147 14.8875 24.3535 14.8452C23.6473 14.8099 22.963 14.697 22.3442 14.2946Z" fill="#04538C"/>
<path d="M9.08063 9.88325C9.51014 10.0738 9.9542 10.7726 10.3182 9.85502C9.96876 9.32565 9.96876 9.32565 10.0416 8.93745C10.2527 9.21272 10.4274 9.4527 10.6603 9.7562C10.8278 9.60798 10.9807 9.46681 11.1335 9.32565C11.0898 9.53034 11.0389 9.76326 10.9807 10.0456C11.1335 10.1444 11.3374 10.2856 11.5994 10.1303C11.8761 9.96089 12.0435 9.73503 11.8469 9.33977C12.3711 9.33977 12.8588 9.33977 13.3393 9.33977C13.3466 9.30447 13.3539 9.26918 13.3684 9.24095C13.0408 9.14919 12.7132 9.05744 12.3857 8.96568C12.9826 9.03626 13.6159 8.98685 14.009 9.60092C14.111 9.76326 14.3803 9.81267 14.555 9.94677C14.8535 10.1726 15.1738 10.3844 15.414 10.6597C15.698 10.9843 15.9018 11.3796 16.1493 11.7396C16.2658 11.909 16.4041 12.0713 16.5642 12.2689C16.2294 12.1631 15.9163 12.0784 15.6179 11.9654C15.5596 11.9443 15.516 11.8172 15.5232 11.7396C15.5669 10.8573 15.0865 10.3138 14.293 9.98206C13.4412 9.62915 12.6696 9.74208 11.9998 10.3914C11.8906 10.4903 11.7014 10.5255 11.5339 10.5538C11.3228 10.5891 11.0753 10.462 10.9443 10.7514C10.9151 10.822 10.7477 10.8926 10.6603 10.8785C10.209 10.8079 9.75037 10.7514 9.32086 10.6032C9.06607 10.5114 8.96415 10.2291 9.08063 9.88325Z" fill="#007AD2"/>
<path d="M18.5953 9.40328C17.6707 9.45975 16.8045 9.51622 15.9454 9.56562C15.6615 9.57974 15.0864 9.05743 15.0864 8.78216C15.0864 8.6904 15.1811 8.58453 15.2539 8.50689C15.9018 7.84342 16.7171 7.94929 17.5397 8.03399C18.0129 8.0834 18.275 8.28103 18.3696 8.72569C18.4133 8.95156 18.5152 9.17036 18.5953 9.40328Z" fill="#007AD2"/>
<path d="M13.6158 7.44816C13.7541 7.40581 13.8997 7.37052 14.038 7.32817C14.5695 7.45522 15.0936 7.58227 15.6469 7.71637C14.9771 8.46455 13.7541 8.46455 12.8296 7.75166C13.0989 7.65285 13.361 7.54698 13.6158 7.44816Z" fill="#007AD2"/>
<path d="M9.46635 9.36094C9.33532 9.29741 9.20428 9.23389 9.04413 9.15625C9.04413 9.36094 9.04413 9.54445 9.04413 9.76325C8.91309 9.77031 8.80389 9.77737 8.66558 9.78443C8.66558 9.3327 8.64374 8.92333 8.67286 8.51395C8.68742 8.28808 8.76749 8.06222 8.84757 7.84342C8.92765 7.62461 9.06596 7.55403 9.34988 7.61755C9.73571 7.70931 10.1434 7.68108 10.5438 7.7446C10.0997 8.02693 9.43723 7.75166 9.09508 8.32338C9.29892 8.44337 9.46635 8.54924 9.61923 8.641C9.56827 8.88098 9.52459 9.09978 9.46635 9.36094Z" fill="#007AD2"/>
<path d="M19.3014 9.975C18.3259 9.98912 17.3504 10.0103 16.5059 10.6314C16.2948 10.3491 16.091 10.0668 15.8799 9.79149C15.8872 9.7562 15.8944 9.71385 15.8944 9.67856C17.0301 9.73502 18.1585 9.79149 19.2941 9.84796C19.3014 9.8903 19.3014 9.93265 19.3014 9.975Z" fill="#007AD2"/>
<path d="M19.4323 11.189C19.9274 11.3796 20.4224 11.5631 20.9174 11.7537C20.9174 11.7819 20.9174 11.8101 20.9174 11.8313C20.6844 11.9019 20.4442 12.0642 20.2258 12.036C19.8254 11.9866 19.4469 11.8243 19.0247 11.6972C19.1994 11.4784 19.3158 11.3302 19.4323 11.182V11.189Z" fill="#007AD2"/>
<path d="M20.0001 9.73503C19.4177 9.5374 18.7844 9.5374 18.6606 8.81746C19.0246 8.57748 19.5779 8.93039 20.0001 9.73503Z" fill="#007AD2"/>
<path d="M19.2723 12.0925C18.6972 12.8618 18.668 12.8689 17.9182 12.6148C18.0711 12.4736 18.2094 12.3536 18.3477 12.2336C18.4788 12.1137 18.6171 12.0007 18.7554 11.8807C18.9301 11.9513 19.0975 12.0219 19.2723 12.0925Z" fill="#007AD2"/>
<path d="M8.48356 9.50916C8.30885 9.42446 8.17053 9.39623 8.16325 9.35388C8.11957 8.67629 7.90846 7.97046 8.41076 7.34934C8.44716 7.30699 8.49084 7.2717 8.58548 7.25758C8.47628 7.49756 8.36708 7.73048 8.26517 7.94929C8.81115 8.42219 8.31613 8.9445 8.48356 9.50916Z" fill="#007AD2"/>
<path d="M14.3001 13.0665C14.2855 13.0242 14.2783 12.9818 14.2637 12.9395C14.0089 12.1348 13.7541 12.1419 15.0208 12.1983C14.7951 12.5301 14.6059 12.8195 14.4093 13.1089C14.3802 13.0877 14.3438 13.0736 14.3001 13.0665Z" fill="#007AD2"/>
<path d="M15.0863 11.796C14.7004 11.796 14.4311 11.796 14.0598 11.796C14.2345 11.5137 14.3728 11.2808 14.5694 10.9561C14.7587 11.2525 14.9115 11.4996 15.0863 11.796Z" fill="#007AD2"/>
<path d="M14.0526 13.3065C13.6813 13.2571 13.3974 13.2218 13.0261 13.1653C13.2591 12.8689 13.4192 12.6571 13.6376 12.3819C13.7687 12.6854 13.8851 12.9395 14.0526 13.3065Z" fill="#007AD2"/>
<path d="M11.3373 7.81519C10.9006 7.73755 10.471 7.65991 10.0343 7.56109C9.9833 7.54697 9.91778 7.39169 9.93962 7.34229C9.97602 7.2717 10.1071 7.17995 10.1653 7.19406C10.573 7.33523 10.9734 7.50463 11.3737 7.66696C11.3665 7.71637 11.3519 7.76578 11.3373 7.81519Z" fill="#007AD2"/>
<path d="M19.4542 13.2289C19.3013 13.1865 19.1557 13.1512 18.9519 13.0947C19.214 12.7912 19.4469 12.516 19.6872 12.2336C19.7964 12.2689 19.891 12.2972 19.9856 12.3325C19.8109 12.643 19.6362 12.9324 19.4542 13.2289Z" fill="#007AD2"/>
<path d="M13.7249 11.7184C13.5356 11.5913 13.3973 11.4925 13.1716 11.3372C13.5429 11.1608 13.8487 11.0126 14.1544 10.8643C14.1762 10.8926 14.1981 10.9279 14.2272 10.9561C14.067 11.1961 13.9069 11.4361 13.7249 11.7184Z" fill="#007AD2"/>
<path d="M12.8149 12.7559C12.8586 12.4242 12.895 12.0854 12.9387 11.7325C13.5284 11.9937 13.5211 12.0784 12.9387 12.763C12.895 12.763 12.8586 12.7559 12.8149 12.7559Z" fill="#007AD2"/>
<path d="M19.4397 11.182C19.3013 11.0337 19.3013 10.9349 19.4833 10.8361C19.7236 10.7091 19.9929 10.6314 20.2404 10.5185C20.437 10.4267 20.619 10.2997 20.8155 10.2291C20.9611 10.1797 21.1286 10.1938 21.2887 10.1868C21.3033 10.222 21.3178 10.2644 21.3324 10.2997C21.2014 10.3632 21.0776 10.4479 20.9466 10.4903C20.5098 10.6314 20.0584 10.7444 19.6217 10.8996C19.527 10.9349 19.4906 11.0902 19.4397 11.182C19.4397 11.182 19.4324 11.189 19.4397 11.182Z" fill="#007AD2"/>
<path d="M21.5581 13.8782C21.8056 13.8429 22.0167 13.8076 22.3443 13.7653C22.1332 14.09 21.9803 14.337 21.7619 14.6687C21.6819 14.344 21.6236 14.1252 21.5581 13.8782Z" fill="#007AD2"/>
<path d="M13.936 8.54218C14.351 8.71864 14.7368 8.88098 15.1226 9.04332C15.1154 9.06449 15.1081 9.08567 15.0935 9.10684C14.6931 9.06449 14.2855 9.01508 13.856 8.96568C13.8851 8.83157 13.9069 8.71158 13.936 8.54218Z" fill="#007AD2"/>
<path d="M16.3312 10.8361C15.6833 10.949 15.5886 10.3491 15.2319 10.1515C15.6833 10.1938 15.9818 10.4761 16.3312 10.8361Z" fill="#007AD2"/>
<path d="M22.1549 12.8336C22.2423 13.1159 22.3005 13.2924 22.366 13.5112C22.1112 13.5112 21.9074 13.5112 21.6162 13.5112C21.8055 13.2783 21.9438 13.1018 22.1549 12.8336Z" fill="#007AD2"/>
<path d="M21.3032 14.0123C21.3979 14.2805 21.4707 14.4782 21.5799 14.7675C21.3469 14.7464 21.1795 14.7323 20.9465 14.7111C21.0776 14.457 21.1722 14.2664 21.3032 14.0123Z" fill="#007AD2"/>
<path d="M21.9511 12.8759C21.7473 13.1018 21.5944 13.2712 21.4342 13.4477C21.245 13.1865 21.4488 12.9395 21.9511 12.8759Z" fill="#007AD2"/>
</svg>
