<svg
  width="24"
  height="24"
  viewBox="0 0 24 24"
  fill="#2D7421"
  xmlns="http://www.w3.org/2000/svg"
>
<path
    d="M19.6 12.2C19.6 12.2 20.1 11.7 20 10.6C20 9.1 18.4 9 18.4 9H16C15.8 9 15.7 8.8 15.7 8.6C16 7.9 16.5 6.5 16.3 5.5C16 4.1 14.8 4 14.4 4C14.3 4 14.2 4.1 14.2 4.2L13.2 7C13.2 7 13.2 7.1 13.1 7.1L10.5 9.9C10.4 10 10.3 10 10.2 10H10V17H10.2C10.9 17 13.4 19 15.6 19C17.8 19 18.3 18.7 18.7 18C19.1 17.3 18.8 16.7 18.8 16.7C18.8 16.7 19.3 16.4 19.4 15.7C19.5 15 19.3 14.6 19.3 14.6C19.3 14.6 19.8 14.2 19.8 13.4C19.9 12.5 19.6 12.2 19.6 12.2Z"
    fill="#2D7421"
    fill-opacity="0.6"
  />
<path
    d="M4 18H9V10H4V18ZM6.5 14.5C7.1 14.5 7.5 14.9 7.5 15.5C7.5 16.1 7.1 16.5 6.5 16.5C5.9 16.5 5.5 16.1 5.5 15.5C5.5 14.9 5.9 14.5 6.5 14.5Z"
    fill="#2D7421"
    fill-opacity="0.6"
  />
</svg>
