<svg
  width="24"
  height="24"
  viewBox="0 0 24 24"
  fill="#6C0A0A"
  xmlns="http://www.w3.org/2000/svg"
>
<path
    d="M19.6 10.8C19.6 10.8 20.1 11.3 20 12.4C20 13.9 18.4 14 18.4 14H16C15.8 14 15.7 14.2 15.7 14.4C16 15.1 16.5 16.5 16.3 17.5C16 18.9 14.8 19 14.4 19C14.3 19 14.2 18.9 14.2 18.8L13.2 16C13.2 16 13.2 15.9 13.1 15.9L10.5 13.1C10.4 13 10.3 13 10.2 13H10V6H10.2C10.9 6 13.4 4 15.6 4C17.8 4 18.3 4.3 18.7 5C19.1 5.7 18.8 6.3 18.8 6.3C18.8 6.3 19.3 6.6 19.4 7.3C19.5 8 19.3 8.4 19.3 8.4C19.3 8.4 19.8 8.8 19.8 9.6C19.9 10.5 19.6 10.8 19.6 10.8Z"
    fill="#6C0A0A"
    fill-opacity="0.6"
  />
<path
    d="M4 14H9V6H4V14ZM6.5 10.5C7.1 10.5 7.5 10.9 7.5 11.5C7.5 12.1 7.1 12.5 6.5 12.5C5.9 12.5 5.5 12.1 5.5 11.5C5.5 10.9 5.9 10.5 6.5 10.5Z"
    fill="#6C0A0A"
    fill-opacity="0.6"
  />
</svg>
