<svg
  width="24"
  height="24"
  viewBox="0 0 24 24"
  fill="none"
  xmlns="http://www.w3.org/2000/svg"
>
<path
    d="M20 6.5C19.4 6.8 18.8 6.9 18.1 7C18.8 6.6 19.3 6 19.5 5.2C18.9 5.6 18.2 5.8 17.4 6C16.8 5.4 15.9 5 15 5C13.3 5 11.8 6.5 11.8 8.3C11.8 8.6 11.8 8.8 11.9 9C9.2 8.9 6.7 7.6 5.1 5.6C4.8 6.1 4.7 6.6 4.7 7.3C4.7 8.4 5.3 9.4 6.2 10C5.7 10 5.2 9.8 4.7 9.6C4.7 11.2 5.8 12.5 7.3 12.8C7 12.9 6.7 12.9 6.4 12.9C6.2 12.9 6 12.9 5.8 12.8C6.2 14.1 7.4 15.1 8.9 15.1C7.8 16 6.4 16.5 4.8 16.5C4.5 16.5 4.3 16.5 4 16.5C5.5 17.4 7.2 18 9 18C15 18 18.3 13 18.3 8.7C18.3 8.6 18.3 8.4 18.3 8.3C19 7.8 19.6 7.2 20 6.5Z"
    fill="#7C8FA0"
    fill-opacity="0.6"
  />
</svg>
