<svg width="60" height="60" viewBox="0 0 60 60" fill="none" xmlns="http://www.w3.org/2000/svg">
<path d="M0 0H60V60H0V0Z" fill="#3C3B3B"/>
<path fill-rule="evenodd" clip-rule="evenodd" d="M57.7778 2.22222H2.22222V57.7778H57.7778V2.22222ZM0 0V60H60V0H0Z" fill="#FF4756"/>
<path d="M30.2351 45.7623C28.4076 45.7623 26.5802 45.7565 24.7528 45.7682C24.3149 45.7711 23.9938 45.6106 23.7252 45.2749C19.8543 40.4328 15.9805 35.5908 12.1008 30.7574C11.8585 30.4539 11.7359 30.1358 11.7388 29.7447C11.7447 25.1011 11.7417 20.4575 11.7417 15.8109C11.7417 15.7029 11.733 15.595 11.7534 15.4928C11.7943 15.2797 11.9782 15.2126 12.1446 15.3498C12.2117 15.4052 12.2672 15.4753 12.3197 15.5424C17.3292 21.8 22.3356 28.0577 27.345 34.3182C30.2526 37.952 33.1601 41.5857 36.0677 45.2194C36.1611 45.3362 36.3042 45.4442 36.2166 45.6281C36.129 45.8119 35.9539 45.7623 35.805 45.7623C33.9483 45.7623 32.0917 45.7623 30.2351 45.7623Z" fill="#FF4756"/>
<path d="M48.8864 22.7635C48.8864 25.0751 48.8835 27.3896 48.8893 29.7012C48.8893 30.0981 48.7842 30.4338 48.5302 30.7461C47.4093 32.1266 46.3058 33.5188 45.1936 34.9081C45.0855 35.0453 44.9834 35.1883 44.8316 35.2846C44.6739 35.3868 44.5046 35.451 44.3119 35.451C44.2244 35.451 44.1368 35.451 44.0492 35.451C40.3943 35.451 36.7365 35.451 33.0817 35.4481C32.9941 35.4481 32.9036 35.4568 32.8189 35.4422C32.6584 35.413 32.5796 35.2525 32.6555 35.1095C32.6905 35.0424 32.7459 34.984 32.7956 34.9227C35.5572 31.4699 38.3217 28.0171 41.0833 24.5673C43.4625 21.5931 45.8416 18.619 48.2237 15.6449C48.2909 15.5602 48.3551 15.4756 48.4281 15.3968C48.501 15.3151 48.5828 15.2421 48.7054 15.2888C48.8309 15.3355 48.8805 15.4347 48.8835 15.5632C48.8835 15.642 48.8835 15.7178 48.8835 15.7966C48.8835 18.117 48.8835 20.4403 48.8864 22.7635Z" fill="#FF4756"/>
</svg>
